<?xml version="1.0" encoding="UTF-8" standalone="no"?>
<!-- Created with Inkscape (http://www.inkscape.org/) -->

<svg
   xmlns:dc="http://purl.org/dc/elements/1.1/"
   xmlns:cc="http://creativecommons.org/ns#"
   xmlns:rdf="http://www.w3.org/1999/02/22-rdf-syntax-ns#"
   xmlns:svg="http://www.w3.org/2000/svg"
   xmlns="http://www.w3.org/2000/svg"
   xmlns:xlink="http://www.w3.org/1999/xlink"
   xmlns:sodipodi="http://sodipodi.sourceforge.net/DTD/sodipodi-0.dtd"
   xmlns:inkscape="http://www.inkscape.org/namespaces/inkscape"
   width="540.83087"
   height="529.39093"
   id="svg2"
   version="1.1"
   inkscape:version="0.48.2 r9819"
   sodipodi:docname="jeton_hasi-geco.svg">
  <sodipodi:namedview
     id="base"
     pagecolor="#000000"
     bordercolor="#666666"
     borderopacity="1.0"
     inkscape:pageopacity="1"
     inkscape:pageshadow="2"
     inkscape:zoom="0.50746856"
     inkscape:cx="161.24499"
     inkscape:cy="432.48808"
     inkscape:document-units="px"
     inkscape:current-layer="layer1"
     showgrid="false"
     inkscape:window-width="1678"
     inkscape:window-height="1029"
     inkscape:window-x="0"
     inkscape:window-y="19"
     inkscape:window-maximized="0"
     fit-margin-top="0"
     fit-margin-left="0"
     fit-margin-right="0"
     fit-margin-bottom="0" />
  <defs
     id="defs4">
    <linearGradient
       id="linearGradient3763">
      <stop
         id="stop3765"
         offset="0"
         style="stop-color:#999999;stop-opacity:1;" />
      <stop
         id="stop3767"
         offset="1"
         style="stop-color:#000000;stop-opacity:1;" />
    </linearGradient>
    <radialGradient
       gradientTransform="matrix(2.2182356,0.0030121,-0.0028666,2.1110885,-441.74243,-569.38686)"
       gradientUnits="userSpaceOnUse"
       r="98.013153"
       fy="505.53415"
       fx="351.52542"
       cy="505.53415"
       cx="351.52542"
       id="radialGradient3769"
       xlink:href="#linearGradient3763"
       inkscape:collect="always" />
  </defs>
  <metadata
     id="metadata7">
    <rdf:RDF>
      <cc:Work
         rdf:about="">
        <dc:format>image/svg+xml</dc:format>
        <dc:type
           rdf:resource="http://purl.org/dc/dcmitype/StillImage" />
        <dc:title />
      </cc:Work>
    </rdf:RDF>
  </metadata>
  <g
     transform="translate(-116.83873,-251.86025)"
     id="layer1"
     inkscape:groupmode="layer"
     inkscape:label="Ebene 1">
    <path
       sodipodi:type="arc"
       style="fill:#ffffff;fill-opacity:1;stroke:none"
       id="path3000"
       sodipodi:cx="269.97128"
       sodipodi:cy="258.72293"
       sodipodi:rx="131.32796"
       sodipodi:ry="131.32796"
       d="m 401.29924,258.72293 a 131.32796,131.32796 0 1 1 -262.65591,0 131.32796,131.32796 0 1 1 262.65591,0 z"
       transform="matrix(0.96753989,0.25271836,-0.25271836,0.96753989,191.89303,203.78151)" />
    <path
       sodipodi:type="arc"
       style="fill:#ffffff;fill-opacity:1;stroke:none"
       id="path3002"
       sodipodi:cx="346.25995"
       sodipodi:cy="410.25522"
       sodipodi:rx="16.024101"
       sodipodi:ry="16.024101"
       d="m 362.28405,410.25522 a 16.024101,16.024101 0 1 1 -32.0482,0 16.024101,16.024101 0 1 1 32.0482,0 z"
       transform="matrix(0.96753989,0.25271836,-0.25271836,0.96753989,180.11671,182.70373)" />
    <path
       transform="matrix(0.96753989,0.25271836,-0.25271836,0.96753989,210.45561,174.06646)"
       d="m 362.28405,410.25522 a 16.024101,16.024101 0 1 1 -32.0482,0 16.024101,16.024101 0 1 1 32.0482,0 z"
       sodipodi:ry="16.024101"
       sodipodi:rx="16.024101"
       sodipodi:cy="410.25522"
       sodipodi:cx="346.25995"
       id="path3004"
       style="fill:#ffffff;fill-opacity:1;stroke:none"
       sodipodi:type="arc" />
    <path
       transform="matrix(0.06011939,0.99819119,-0.99819119,0.06011939,647.49258,222.54782)"
       d="m 362.28405,410.25522 a 16.024101,16.024101 0 1 1 -32.0482,0 16.024101,16.024101 0 1 1 32.0482,0 z"
       sodipodi:ry="16.024101"
       sodipodi:rx="16.024101"
       sodipodi:cy="410.25522"
       sodipodi:cx="346.25995"
       id="path3006"
       style="fill:#ffffff;fill-opacity:1;stroke:none"
       sodipodi:type="arc" />
    <path
       sodipodi:type="arc"
       style="fill:#ffffff;fill-opacity:1;stroke:none"
       id="path3008"
       sodipodi:cx="346.25995"
       sodipodi:cy="410.25522"
       sodipodi:rx="16.024101"
       sodipodi:ry="16.024101"
       d="m 362.28405,410.25522 a 16.024101,16.024101 0 1 1 -32.0482,0 16.024101,16.024101 0 1 1 32.0482,0 z"
       transform="matrix(0.06011939,0.99819119,-0.99819119,0.06011939,665.81666,248.66472)" />
    <path
       sodipodi:type="arc"
       style="fill:#ffffff;fill-opacity:1;stroke:none"
       id="path3010"
       sodipodi:cx="475.84616"
       sodipodi:cy="342.67529"
       sodipodi:rx="41.802006"
       sodipodi:ry="41.802006"
       d="m 517.64817,342.67529 a 41.802006,41.802006 0 1 1 -83.60401,0 41.802006,41.802006 0 1 1 83.60401,0 z"
       transform="matrix(0.96753989,0.25271836,-0.25271836,0.96753989,183.15047,102.85772)" />
    <path
       sodipodi:type="arc"
       style="fill:#ffffff;fill-opacity:1;stroke:none"
       id="path3012"
       sodipodi:cx="34.138306"
       sodipodi:cy="-119.23685"
       sodipodi:rx="81.513908"
       sodipodi:ry="81.513908"
       d="m 115.65221,-119.23685 a 81.513908,81.513908 0 1 1 -163.027813,0 81.513908,81.513908 0 1 1 163.027813,0 z"
       transform="matrix(0.96753989,0.25271836,-0.25271836,0.96753989,173.32847,480.57558)" />
    <path
       sodipodi:type="arc"
       style="fill:#ffffff;fill-opacity:1;stroke:none"
       id="path3014"
       sodipodi:cx="27.171303"
       sodipodi:cy="206.81879"
       sodipodi:rx="13.237302"
       sodipodi:ry="13.237302"
       d="m 40.408605,206.81879 a 13.237302,13.237302 0 1 1 -26.474604,0 13.237302,13.237302 0 1 1 26.474604,0 z"
       transform="translate(162.56737,247.91912)" />
    <path
       transform="translate(187.11491,257.44835)"
       d="m 40.408605,206.81879 a 13.237302,13.237302 0 1 1 -26.474604,0 13.237302,13.237302 0 1 1 26.474604,0 z"
       sodipodi:ry="13.237302"
       sodipodi:rx="13.237302"
       sodipodi:cy="206.81879"
       sodipodi:cx="27.171303"
       id="path3016"
       style="fill:#ffffff;fill-opacity:1;stroke:none"
       sodipodi:type="arc" />
    <path
       style="color:#000000;fill:#000000;stroke:#000000;stroke-width:2.20000005;stroke-linecap:butt;stroke-linejoin:miter;stroke-miterlimit:4;stroke-opacity:1;stroke-dasharray:none;stroke-dashoffset:0;marker:none;visibility:visible;display:inline;overflow:visible;enable-background:accumulate"
       d="m 199.60247,440.34336 c 1.31324,5.72199 5.54113,9.46854 7.88226,3.44849 2.34113,-6.02005 1.64214,-20.03409 2.46321,-30.05113 8.70333,-5.25484 21.46752,-10.98551 26.10999,-15.76452 4.64247,-4.77901 -4.02293,-3.37178 -9.36018,-1.47792 -5.33725,1.89386 -14.12239,8.21069 -21.18358,12.31603 -4.43377,-5.25484 -9.5872,-12.93471 -13.30132,-15.76452 -3.71412,-2.82981 -9.47831,-5.16029 -7.38962,0 2.08869,5.16029 10.50968,13.79395 15.76453,20.69093 -0.32843,8.86755 -2.29853,20.88065 -0.98529,26.60264 z"
       id="path3020"
       inkscape:connector-curvature="0"
       sodipodi:nodetypes="zzczzczzcz" />
    <path
       sodipodi:type="arc"
       style="fill:#000000;fill-opacity:1;stroke:none"
       id="path3024"
       sodipodi:cx="166.02014"
       sodipodi:cy="117.05011"
       sodipodi:rx="25.12471"
       sodipodi:ry="25.12471"
       d="m 191.14485,117.05011 a 25.12471,25.12471 0 1 1 -50.24942,0 25.12471,25.12471 0 1 1 50.24942,0 z"
       transform="translate(43.927809,218.36064)" />
    <path
       transform="translate(98.118359,237.08101)"
       d="m 191.14485,117.05011 a 25.12471,25.12471 0 1 1 -50.24942,0 25.12471,25.12471 0 1 1 50.24942,0 z"
       sodipodi:ry="25.12471"
       sodipodi:rx="25.12471"
       sodipodi:cy="117.05011"
       sodipodi:cx="166.02014"
       id="path3026"
       style="fill:#000000;fill-opacity:1;stroke:none"
       sodipodi:type="arc" />
    <path
       sodipodi:type="arc"
       style="fill:#ffffff;fill-opacity:1;stroke:none"
       id="path3030"
       sodipodi:cx="147.29977"
       sodipodi:cy="119.02068"
       sodipodi:rx="14.286599"
       sodipodi:ry="14.286599"
       d="m 161.58637,119.02068 a 14.286599,14.286599 0 1 1 -28.57319,0 14.286599,14.286599 0 1 1 28.57319,0 z"
       transform="translate(108.95647,243.40082)" />
    <path
       transform="translate(53.949686,223.86421)"
       d="m 161.58637,119.02068 a 14.286599,14.286599 0 1 1 -28.57319,0 14.286599,14.286599 0 1 1 28.57319,0 z"
       sodipodi:ry="14.286599"
       sodipodi:rx="14.286599"
       sodipodi:cy="119.02068"
       sodipodi:cx="147.29977"
       id="path3032"
       style="fill:#ffffff;fill-opacity:1;stroke:none"
       sodipodi:type="arc" />
    <path
       sodipodi:type="arc"
       style="fill:#ffffff;fill-opacity:1;stroke:none"
       id="path3034"
       sodipodi:cx="134.46312"
       sodipodi:cy="-46.780045"
       sodipodi:rx="41.105305"
       sodipodi:ry="41.105305"
       d="m 175.56842,-46.780045 a 41.105305,41.105305 0 1 1 -82.210605,0 41.105305,41.105305 0 1 1 82.210605,0 z"
       transform="translate(111.26513,299.23586)" />
    <path
       transform="translate(186.50874,332.67746)"
       d="m 175.56842,-46.780045 a 41.105305,41.105305 0 1 1 -82.210605,0 41.105305,41.105305 0 1 1 82.210605,0 z"
       sodipodi:ry="41.105305"
       sodipodi:rx="41.105305"
       sodipodi:cy="-46.780045"
       sodipodi:cx="134.46312"
       id="path3036"
       style="fill:#ffffff;fill-opacity:1;stroke:none"
       sodipodi:type="arc" />
    <path
       sodipodi:type="arc"
       style="fill:#000000;fill-opacity:1;stroke:none"
       id="path3038"
       sodipodi:cx="216.67372"
       sodipodi:cy="-53.747047"
       sodipodi:rx="24.384502"
       sodipodi:ry="24.384502"
       d="m 241.05822,-53.747047 a 24.384502,24.384502 0 1 1 -48.769,0 24.384502,24.384502 0 1 1 48.769,0 z"
       transform="translate(94.544327,349.39826)" />
    <path
       transform="translate(29.054518,320.13686)"
       d="m 241.05822,-53.747047 a 24.384502,24.384502 0 1 1 -48.769,0 24.384502,24.384502 0 1 1 48.769,0 z"
       sodipodi:ry="24.384502"
       sodipodi:rx="24.384502"
       sodipodi:cy="-53.747047"
       sodipodi:cx="216.67372"
       id="path3040"
       style="fill:#000000;fill-opacity:1;stroke:none"
       sodipodi:type="arc" />
    <path
       style="color:#000000;fill:#000000;stroke:none;stroke-width:2.20000005;marker:none;visibility:visible;display:inline;overflow:visible;enable-background:accumulate"
       d="m 431.32217,302.96314 c 0,0 -2.81509,-18.30135 1.88464,-21.66606 4.69972,-3.36471 7.80656,-2.55141 10.51485,2.67307 2.70828,5.22448 -5.95205,20.05782 -5.95205,20.05782 0,0 11.61112,-14.27606 17.98311,-12.54463 6.372,1.73144 8.56452,6.83008 5.42941,12.69006 -3.13512,5.85997 -22.49752,5.46711 -22.49752,5.46711 0,0 15.9464,7.53761 16.48514,13.91602 0.53874,6.3784 -3.28172,11.0254 -9.62685,10.08577 -6.34513,-0.93963 -10.0283,-19.81312 -10.0283,-19.81312 0,0 1.46954,20.24456 -4.7754,23.29725 -6.24494,3.05269 -12.78282,-1.74997 -13.96096,-7.91149 -1.17814,-6.16153 13.53281,-16.82502 13.53281,-16.82502 0,0 -51.83497,-22.46243 -67.48069,-20.45212 -15.64572,2.01031 -26.84895,15.76451 -26.84895,15.76451 1.13107,18.09717 7.38719,32.47037 -3.94114,48.7715 -11.32833,16.30113 -31.15589,26.17649 -55.17583,30.05112 -24.01994,3.87463 -75.37413,-3.44849 -75.37413,-3.44849 0,0 41.4897,-3.71513 58.62433,-10.34546 17.13463,-6.63033 26.96995,-15.40301 34.49939,-27.79198 7.52944,-12.38897 3.61096,-25.5189 1.10482,-33.21103 0,0 -19.30681,-10.6935 -34.82299,-7.81224 -15.51618,2.88126 -38.22197,28.41865 -38.22197,28.41865 0,0 20.83377,4.73259 22.16886,11.8234 1.33509,7.09081 -4.39822,14.3961 -11.82339,13.79395 -7.42517,-0.60215 -13.09726,-18.4813 -13.09726,-18.4813 0,0 7.99512,19.81593 1.76651,24.88564 -6.22861,5.06971 -15.05532,1.58415 -18.22773,-5.41905 -3.17241,-7.0032 7.84725,-23.23867 7.84725,-23.23867 0,0 -18.28348,8.85318 -25.0897,4.5183 -6.80622,-4.33488 -10.56887,-12.66103 -4.43377,-18.72038 6.1351,-6.05935 27.34885,5.09547 27.34885,5.09547 0,0 -20.25447,-16.03813 -18.48131,-25.7864 1.77316,-9.74827 11.1994,-15.67587 19.70566,-11.8234 8.50626,3.85247 5.91169,32.51433 5.91169,32.51433 0,0 23.17764,-28.79452 39.83393,-31.83213 16.65629,-3.03761 32.09172,-0.68219 32.09172,-0.68219 -2.88683,3.57749 -29.5843,-35.86199 -38.1797,-63.79706 0,0 -30.96052,-23.26581 -51.97368,-32.51433 -21.01316,-9.24852 -37.63454,-26.00796 -37.63454,-26.00796 0,0 3.83857,21.8833 -1.97057,25.61735 -5.80914,3.73405 -12.58248,1.00837 -14.77924,-5.41906 -2.19676,-6.42743 10.51452,-21.0094 10.51452,-21.0094 0,0 -19.07777,9.53946 -24.80112,4.2596 -5.72335,-5.27986 -4.91668,-14.4313 1.47793,-18.72037 6.39461,-4.28907 23.41028,5.84936 23.41028,5.84936 0,0 -13.82461,-13.52587 -10.60161,-20.62861 3.223,-7.10274 14.29138,-8.58006 19.70566,-3.94113 5.41428,4.63893 -0.28859,21.3552 -0.28859,21.3552 0,0 8.13922,-16.17919 15.06783,-15.93614 6.92861,0.24305 13.40133,7.09924 11.33075,14.2866 -2.07058,7.18736 -25.12471,8.86754 -25.12471,8.86754 0,0 21.86815,17.84902 38.12719,24.0374 16.25904,6.18838 46.80093,21.4299 46.80093,21.4299 0,0 -0.13183,-7.29956 -1.47793,-12.31603 -1.3461,-5.01647 -8.53645,-6.88695 -7.38962,-17.24245 1.14683,-10.3555 13.99805,-30.25256 25.61735,-34.97754 11.6193,-4.72498 19.57592,-2.86045 28.08056,5.91169 8.50464,8.77214 12.3207,38.97613 8.37491,45.0767 -3.9458,6.10056 -10.32751,4.71745 -13.54765,9.36017 -3.22014,4.64272 -3.6948,9.60651 -3.6948,9.60651 0,0 25.8306,-3.43655 33.21103,-8.3749 7.38043,-4.93835 11.12669,-15.76452 11.12669,-15.76452 0,0 -18.82022,4.12987 -22.6615,-1.47793 -3.84128,-5.6078 -0.98285,-15.29171 5.41905,-17.24244 6.4019,-1.95073 17.93915,12.7489 17.93915,12.7489 0,0 -10.12821,-17.184 -5.62311,-22.10909 4.5051,-4.92509 12.87831,-3.57805 16.25716,1.97057 3.37885,5.54862 -3.35371,20.48687 -3.35371,20.48687 0,0 9.49031,-13.81897 16.16239,-12.11197 6.67208,1.707 11.57386,8.60131 8.3749,14.77924 -3.19896,6.17793 -22.89032,3.33409 -22.89032,3.33409 0,0 20.8968,6.28271 22.39768,13.90836 1.50088,7.62565 -2.95341,15.32735 -10.83811,14.77924 -7.8847,-0.54811 -13.79396,-25.61735 -13.79396,-25.61735 0,0 -6.19945,13.86 -13.76407,19.07385 -7.56462,5.21385 -32.05158,9.0067 -32.05158,9.0067 13.39329,24.6881 26.61668,39.60107 36.20914,67.73819 18.31419,-9.38942 23.44478,-14.35434 41.18248,-11.36248 15.15757,2.55667 38.43429,14.02001 62.77951,27.06792 z"
       id="path3043"
       inkscape:connector-curvature="0"
       transform="translate(116.83873,251.86025)"
       sodipodi:nodetypes="czzczzczzczzczczzczzczczzczzczzczzczcczczzczzczzczzczczzzzzzczczzczzczzczzczccsc" />
  </g>
</svg>
