<?xml version="1.0" encoding="UTF-8" standalone="no"?>
<!-- Created with Inkscape (http://www.inkscape.org/) -->

<svg
   xmlns:dc="http://purl.org/dc/elements/1.1/"
   xmlns:cc="http://creativecommons.org/ns#"
   xmlns:rdf="http://www.w3.org/1999/02/22-rdf-syntax-ns#"
   xmlns:svg="http://www.w3.org/2000/svg"
   xmlns="http://www.w3.org/2000/svg"
   xmlns:xlink="http://www.w3.org/1999/xlink"
   xmlns:sodipodi="http://sodipodi.sourceforge.net/DTD/sodipodi-0.dtd"
   xmlns:inkscape="http://www.inkscape.org/namespaces/inkscape"
   width="540.83087"
   height="529.39093"
   id="svg2"
   version="1.1"
   inkscape:version="0.48.2 r9819"
   sodipodi:docname="proto-hasen-geco.svg">
  <sodipodi:namedview
     id="base"
     pagecolor="#000000"
     bordercolor="#666666"
     borderopacity="1.0"
     inkscape:pageopacity="1"
     inkscape:pageshadow="2"
     inkscape:zoom="1.0489559"
     inkscape:cx="181.7043"
     inkscape:cy="225.15063"
     inkscape:document-units="px"
     inkscape:current-layer="layer1"
     showgrid="false"
     inkscape:window-width="1678"
     inkscape:window-height="1029"
     inkscape:window-x="0"
     inkscape:window-y="19"
     inkscape:window-maximized="0"
     fit-margin-top="0"
     fit-margin-left="0"
     fit-margin-right="0"
     fit-margin-bottom="0" />
  <defs
     id="defs4">
    <linearGradient
       id="linearGradient3763">
      <stop
         id="stop3765"
         offset="0"
         style="stop-color:#999999;stop-opacity:1;" />
      <stop
         id="stop3767"
         offset="1"
         style="stop-color:#000000;stop-opacity:1;" />
    </linearGradient>
    <radialGradient
       gradientTransform="matrix(2.2182356,0.0030121,-0.0028666,2.1110885,-441.74243,-569.38686)"
       gradientUnits="userSpaceOnUse"
       r="98.013153"
       fy="505.53415"
       fx="351.52542"
       cy="505.53415"
       cx="351.52542"
       id="radialGradient3769"
       xlink:href="#linearGradient3763"
       inkscape:collect="always" />
    <radialGradient
       inkscape:collect="always"
       xlink:href="#linearGradient3763"
       id="radialGradient4181"
       gradientUnits="userSpaceOnUse"
       gradientTransform="matrix(2.2182356,0.0030121,-0.0028666,2.1110885,-441.74243,-569.38686)"
       cx="351.52542"
       cy="505.53415"
       fx="351.52542"
       fy="505.53415"
       r="98.013153" />
  </defs>
  <metadata
     id="metadata7">
    <rdf:RDF>
      <cc:Work
         rdf:about="">
        <dc:format>image/svg+xml</dc:format>
        <dc:type
           rdf:resource="http://purl.org/dc/dcmitype/StillImage" />
        <dc:title />
      </cc:Work>
    </rdf:RDF>
  </metadata>
  <g
     transform="translate(-116.83873,-251.86025)"
     id="layer1"
     inkscape:groupmode="layer"
     inkscape:label="Ebene 1">
    <rect
       style="fill:#000000;fill-opacity:1;stroke:#ffffff;stroke-width:1;stroke-linecap:butt;stroke-miterlimit:4;stroke-opacity:1;stroke-dasharray:none;stroke-dashoffset:0"
       id="rect4183"
       width="551.97748"
       height="538.63086"
       x="-2.8599868"
       y="-1.6132913"
       transform="translate(116.83873,251.86025)" />
    <g
       transform="translate(344.15175,102.0062)"
       id="g4160">
      <path
         id="path4174"
         style="color:#000000;fill:none;stroke:#ffffff;stroke-width:2.20000005;stroke-linecap:butt;stroke-linejoin:miter;stroke-miterlimit:4;stroke-opacity:1;stroke-dasharray:none;stroke-dashoffset:0;marker:none;visibility:visible;display:inline;overflow:visible;enable-background:accumulate"
         d="M 159.8852,678.14496 312.41783,386.4263 M 159.8852,657.17172 312.41783,365.45306 M 159.8852,636.19849 312.41783,344.47983 M 159.8852,615.22525 312.41783,323.50659 M 159.8852,594.25201 312.41783,302.53335 M 159.8852,573.27878 312.41783,281.56012 M 159.8852,552.30554 312.41783,260.58688"
         inkscape:connector-curvature="0"
         sodipodi:nodetypes="cccccccccccccc" />
      <path
         sodipodi:nodetypes="cccccccccccccc"
         inkscape:connector-curvature="0"
         d="M -70.820404,279.65346 312.41783,386.4263 M -70.820404,258.68022 312.41783,365.45306 M -70.820404,237.70699 312.41783,344.47983 M -70.820404,216.73375 312.41783,323.50659 M -70.820404,195.76051 312.41783,302.53335 M -70.820404,174.78728 312.41783,281.56012 M -70.820404,153.81404 312.41783,260.58688"
         style="color:#000000;fill:none;stroke:#ffffff;stroke-width:2.20000005;stroke-linecap:butt;stroke-linejoin:miter;stroke-miterlimit:4;stroke-opacity:1;stroke-dasharray:none;stroke-dashoffset:0;marker:none;visibility:visible;display:inline;overflow:visible;enable-background:accumulate"
         id="path4177" />
      <path
         sodipodi:nodetypes="cccccccccccccc"
         inkscape:connector-curvature="0"
         d="M -224.30637,560.8855 -69.867076,276.79347 M -224.30637,539.91226 -69.867076,255.82023 M -224.30637,518.93903 -69.867076,234.847 M -224.30637,497.96579 -69.867076,213.87376 M -224.30637,476.99255 -69.867076,192.90052 M -224.30637,456.01932 -69.867076,171.92729 M -224.30637,435.04608 -69.867076,150.95405"
         style="color:#000000;fill:none;stroke:#ffffff;stroke-width:2.20000005;stroke-linecap:butt;stroke-linejoin:miter;stroke-miterlimit:4;stroke-opacity:1;stroke-dasharray:none;stroke-dashoffset:0;marker:none;visibility:visible;display:inline;overflow:visible;enable-background:accumulate"
         id="path4179" />
    </g>
    <path
       sodipodi:nodetypes="czzc"
       inkscape:connector-curvature="0"
       id="path2989"
       d="m 308.88591,392.26514 c -7.30275,-23.02736 -6.62712,-52.03509 7.24322,-84.6839 13.87034,-32.64882 33.67512,-34.23187 36.58937,-1.7271 2.91424,32.50477 -16.38821,69.53846 -28.72043,88.56988"
       style="color:#000000;fill:#ffffff;stroke:#000000;stroke-width:1;stroke-linecap:butt;stroke-linejoin:miter;stroke-miterlimit:4;stroke-opacity:1;stroke-dasharray:none;stroke-dashoffset:0;marker:none;visibility:visible;display:inline;overflow:visible;enable-background:accumulate" />
    <path
       d="m 464.591,519.11877 c 0,54.13117 -43.88198,98.01316 -98.01315,98.01316 -54.13117,0 -98.01315,-43.88199 -98.01315,-98.01316 0,-54.13117 43.88198,-98.01315 98.01315,-98.01315 54.13117,0 98.01315,43.88198 98.01315,98.01315 z"
       sodipodi:ry="98.013153"
       sodipodi:rx="98.013153"
       sodipodi:cy="519.11877"
       sodipodi:cx="366.57785"
       id="path2985"
       style="fill:url(#radialGradient4181);fill-opacity:1;stroke:none"
       sodipodi:type="arc" />
    <path
       sodipodi:nodetypes="ccccccccccccccccccccccccccccccccccccssssccccccccccccccccccccccccccccccccccccc"
       inkscape:connector-curvature="0"
       id="path2987"
       d="m 299.65256,583.45343 c 26.88807,-4.87744 66.61396,10.52657 85.49165,-18.99814 l -18.13459,-9.49908 -14.38727,9.46034 11.28276,5.22489 -1.76738,4.44189 -11.42448,-7.69474 -0.24608,12.03996 -4.42214,-1.66268 1.45042,-11.71129 -8.31574,8.45843 -3.74818,-4.06971 9.43245,-6.81024 -14.31343,-6.36798 2.65173,-8.32551 12.56985,9.68369 c 1.85311,-8.77084 19.37928,-15.73283 20.37393,-16.0521 l 17.70282,10.36262 c -16.17482,-35.68512 -23.63913,-64.39036 -16.40748,-89.37764 -4.46169,-1.79945 -11.51403,-1.11811 -15.97572,2.59066 -4.47347,2.25568 -6.75852,3.48008 -10.09269,10.29294 l 10.80542,15.03423 -1.95522,2.76663 -10.81396,-11.81335 -2.87801,12.54815 -2.87801,-0.73995 1.18224,-14.39714 -13.76686,9.04156 -1.82685,-2.86106 10.16935,-8.30548 -13.17708,3.22931 1.43967,-7.65931 13.89727,1.01484 c 3.11992,-7.6501 10.012,-14.02815 17.73585,-15.92334 4.74954,-0.84527 13.38506,-3.58517 18.1346,-2.15888 -8.63774,-4.1393 -6.40948,-6.9707 -16.99639,-10.65469 -12.65135,-2.68508 -23.19776,-2.34397 -42.11799,5.55433 -15.93424,6.6518 -29.69641,-6.26757 -32.56442,-9.63713 -5.8923,-6.92274 1.77867,-22.0752 1.73693,-25.40741 -0.0188,-1.50299 17.56447,-16.67818 31.46342,-22.03445 9.86593,-3.80206 42.1764,3.548 46.5907,25.03342 24.05585,5.48545 23.34493,7.95387 42.00046,29.93106 5.66691,-1.20446 13.27206,2.05561 24.29106,2.89711 6.06304,0.81864 15.55101,8.26264 21.15702,18.1346 l 4.82366,-4.34602 2.12791,3.66207 c -2.71878,1.33501 -4.46153,2.42044 -6.82129,4.30988 l 6.88356,4.7265 -2.70827,3.81298 -6.29706,-5.77887 0.55426,10.46855 -2.70827,-0.36306 0.3585,-9.17191 -6.94957,3.74773 -1.46851,-2.71209 7.14458,-2.32058 c -6.61925,-7.15027 -11.00698,-14.26145 -17.82362,-15.96603 -10.6029,-2.64394 -11.83207,-2.04241 -17.27104,1.29532 15.60549,37.21156 10.62873,69.15259 8.20374,91.10474 0.85473,-7.78373 13.98702,-15.17309 18.13459,-18.56637 7.73695,3.49963 16.64176,3.88496 21.15703,15.97572 l 2.22166,-9.76413 4.85159,2.37047 -5.85271,9.47592 7.2047,0.3865 -2.11543,5.23111 -6.26796,-3.67376 4.52862,7.07668 -2.18987,1.50387 -2.9405,-6.30736 -3.49418,6.05793 -3.98929,-1.58745 4.82329,-5.73998 c -4.63222,-5.53328 -10.6412,-10.07778 -17.50518,-8.91578 -8.15669,4.02991 -17.0715,10.65047 -17.27103,18.13459 -1.72215,9.55813 -12.02791,25.21987 -24.61124,31.51965 -25.84431,8.69006 -59.99146,-7.56033 -88.0823,-11.22618 z"
       style="color:#000000;fill:#ffffff;stroke:#000000;stroke-width:1;stroke-linecap:butt;stroke-linejoin:miter;stroke-miterlimit:4;stroke-opacity:1;stroke-dasharray:none;stroke-dashoffset:0;marker:none;visibility:visible;display:inline;overflow:visible;enable-background:accumulate" />
    <path
       sodipodi:nodetypes="czzc"
       inkscape:connector-curvature="0"
       id="path2991"
       d="m 324.01138,396.4319 c 2.35864,-30.3384 -2.7855,-52.09971 16.40749,-87.12088 19.19299,-35.02116 42.75783,-33.97673 33.83788,17.03767 -8.91995,51.0144 -20.26993,56.50826 -33.4061,76.55985"
       style="color:#000000;fill:#ffffff;stroke:#000000;stroke-width:1;stroke-linecap:butt;stroke-linejoin:miter;stroke-miterlimit:4;stroke-opacity:1;stroke-dasharray:none;stroke-dashoffset:0;marker:none;visibility:visible;display:inline;overflow:visible;enable-background:accumulate" />
    <path
       sodipodi:nodetypes="sssss"
       inkscape:connector-curvature="0"
       id="path2993"
       d="m 320.76092,419.65807 c 0,2.86156 -3.093,5.18132 -6.90842,5.18132 -3.81541,0 -6.90841,-2.31976 -6.90841,-5.18132 0,-2.86156 3.093,-5.18131 6.90841,-5.18131 3.81542,0 6.90842,2.31975 6.90842,5.18131 z"
       style="fill:none;stroke:#000000;stroke-opacity:1"
       transform="translate(3.4542082,-12.521504)" />
    <path
       sodipodi:nodetypes="ccc"
       inkscape:connector-curvature="0"
       id="path2995"
       d="m 278.00608,425.11143 4.07613,6.1351 8.63552,-5.18132"
       style="color:#000000;fill:none;stroke:#000000;stroke-width:2.20000005;stroke-linecap:butt;stroke-linejoin:miter;stroke-miterlimit:4;stroke-opacity:1;stroke-dasharray:none;stroke-dashoffset:0;marker:none;visibility:visible;display:inline;overflow:visible;enable-background:accumulate" />
    <path
       sodipodi:nodetypes="cc"
       inkscape:connector-curvature="0"
       id="path2997"
       d="m 281.65043,431.24653 0,13.65574"
       style="color:#000000;fill:none;stroke:#000000;stroke-width:2.20000005;stroke-linecap:butt;stroke-linejoin:miter;stroke-miterlimit:4;stroke-opacity:1;stroke-dasharray:none;stroke-dashoffset:0;marker:none;visibility:visible;display:inline;overflow:visible;enable-background:accumulate" />
    <path
       sodipodi:nodetypes="cssc"
       inkscape:connector-curvature="0"
       id="path2999"
       d="m 316.96517,417.15765 c 3.81542,0 3.79575,-0.36114 3.79575,2.50042 0,2.86156 -3.093,5.18132 -6.90842,5.18132 -3.81541,0 -4.05675,0.36113 -4.05675,-2.50043"
       style="fill:none;stroke:#000000;stroke-opacity:1"
       transform="translate(-19.429921,-18.566368)" />
    <path
       sodipodi:nodetypes="ccccccc"
       inkscape:connector-curvature="0"
       id="path3003"
       d="m 282.51331,447.03424 -5.85002,21.88153 10.91522,2.33934 -0.76883,-16.025 2.80688,17.57165 11.22618,-1.72711 -6.01062,-18.64648"
       style="color:#000000;fill:#ffffff;stroke:#000000;stroke-width:1;stroke-miterlimit:4;stroke-opacity:1;stroke-dasharray:none;marker:none;visibility:visible;display:inline;overflow:visible;enable-background:accumulate" />
    <path
       sodipodi:nodetypes="sssss"
       style="fill:#000000;fill-opacity:1;stroke:none"
       d="m 297.50556,404.14603 c 0,1.22313 -1.1082,2.21468 -2.47523,2.21468 -1.36704,0 -2.47524,-0.99155 -2.47524,-2.21468 0,-1.22314 1.1082,-2.21468 2.47524,-2.21468 1.36703,0 2.47523,0.99154 2.47523,2.21468 z"
       id="path3762"
       inkscape:connector-curvature="0" />
    <path
       sodipodi:nodetypes="sssss"
       inkscape:connector-curvature="0"
       id="path3764"
       d="m 317.06857,409.31361 c 0,1.22313 -1.1082,2.21468 -2.47523,2.21468 -1.36704,0 -2.47524,-0.99155 -2.47524,-2.21468 0,-1.22314 1.1082,-2.21468 2.47524,-2.21468 1.36703,0 2.47523,0.99154 2.47523,2.21468 z"
       style="fill:#000000;fill-opacity:1;stroke:none" />
    <path
       sodipodi:nodetypes="cc"
       inkscape:connector-curvature="0"
       id="path3766"
       d="m 297.76657,451.39259 c 5.88951,-2.93844 7.78498,-4.39122 10.31663,-8.03862"
       style="color:#000000;fill:none;stroke:#000000;stroke-width:1;stroke-linecap:butt;stroke-linejoin:miter;stroke-miterlimit:4;stroke-opacity:1;stroke-dasharray:none;stroke-dashoffset:0;marker:none;visibility:visible;display:inline;overflow:visible;enable-background:accumulate" />
    <path
       sodipodi:nodetypes="cc"
       transform="translate(268.5647,281.76933)"
       inkscape:connector-curvature="0"
       id="path2994"
       d="m 57.187224,162.72191 c 10.847325,-3.14824 20.788447,-10.88526 21.580084,-18.34308"
       style="color:#000000;fill:none;stroke:#000000;stroke-width:1;stroke-linecap:butt;stroke-linejoin:miter;stroke-miterlimit:4;stroke-opacity:1;stroke-dasharray:none;stroke-dashoffset:0;marker:none;visibility:visible;display:inline;overflow:visible;enable-background:accumulate" />
    <g
       id="g4114"
       transform="translate(-41.946472,-15.253263)">
      <path
         id="path4116"
         d="m 159.8852,552.30554 c 0,0 387.05155,116.30613 387.05155,116.30613"
         style="color:#000000;fill:none;stroke:#ffffff;stroke-width:2.20000005;stroke-linecap:butt;stroke-linejoin:miter;stroke-miterlimit:4;stroke-opacity:1;stroke-dasharray:none;stroke-dashoffset:0;marker:none;visibility:visible;display:inline;overflow:visible;enable-background:accumulate"
         inkscape:connector-curvature="0" />
      <path
         id="path4118"
         d="m 159.8852,573.27878 c 0,0 387.05155,116.30613 387.05155,116.30613"
         style="color:#000000;fill:none;stroke:#ffffff;stroke-width:2.20000005;stroke-linecap:butt;stroke-linejoin:miter;stroke-miterlimit:4;stroke-opacity:1;stroke-dasharray:none;stroke-dashoffset:0;marker:none;visibility:visible;display:inline;overflow:visible;enable-background:accumulate"
         inkscape:connector-curvature="0" />
      <path
         id="path4120"
         d="m 159.8852,594.25201 c 0,0 387.05155,116.30613 387.05155,116.30613"
         style="color:#000000;fill:none;stroke:#ffffff;stroke-width:2.20000005;stroke-linecap:butt;stroke-linejoin:miter;stroke-miterlimit:4;stroke-opacity:1;stroke-dasharray:none;stroke-dashoffset:0;marker:none;visibility:visible;display:inline;overflow:visible;enable-background:accumulate"
         inkscape:connector-curvature="0" />
      <path
         id="path4122"
         d="m 159.8852,615.22525 c 0,0 387.05155,116.30613 387.05155,116.30613"
         style="color:#000000;fill:none;stroke:#ffffff;stroke-width:2.20000005;stroke-linecap:butt;stroke-linejoin:miter;stroke-miterlimit:4;stroke-opacity:1;stroke-dasharray:none;stroke-dashoffset:0;marker:none;visibility:visible;display:inline;overflow:visible;enable-background:accumulate"
         inkscape:connector-curvature="0" />
      <path
         id="path4124"
         d="m 159.8852,636.19849 c 0,0 387.05155,116.30613 387.05155,116.30613"
         style="color:#000000;fill:none;stroke:#ffffff;stroke-width:2.20000005;stroke-linecap:butt;stroke-linejoin:miter;stroke-miterlimit:4;stroke-opacity:1;stroke-dasharray:none;stroke-dashoffset:0;marker:none;visibility:visible;display:inline;overflow:visible;enable-background:accumulate"
         inkscape:connector-curvature="0" />
      <path
         id="path4126"
         d="m 159.8852,657.17172 c 0,0 387.05155,116.30613 387.05155,116.30613"
         style="color:#000000;fill:none;stroke:#ffffff;stroke-width:2.20000005;stroke-linecap:butt;stroke-linejoin:miter;stroke-miterlimit:4;stroke-opacity:1;stroke-dasharray:none;stroke-dashoffset:0;marker:none;visibility:visible;display:inline;overflow:visible;enable-background:accumulate"
         inkscape:connector-curvature="0" />
      <path
         id="path4128"
         d="m 159.8852,678.14496 c 0,0 387.05155,116.30613 387.05155,116.30613"
         style="color:#000000;fill:none;stroke:#ffffff;stroke-width:2.20000005;stroke-linecap:butt;stroke-linejoin:miter;stroke-miterlimit:4;stroke-opacity:1;stroke-dasharray:none;stroke-dashoffset:0;marker:none;visibility:visible;display:inline;overflow:visible;enable-background:accumulate"
         inkscape:connector-curvature="0" />
    </g>
  </g>
</svg>
