<?xml version="1.0" encoding="UTF-8" standalone="no"?>
<!-- Created with Inkscape (http://www.inkscape.org/) -->

<svg
   xmlns:dc="http://purl.org/dc/elements/1.1/"
   xmlns:cc="http://creativecommons.org/ns#"
   xmlns:rdf="http://www.w3.org/1999/02/22-rdf-syntax-ns#"
   xmlns:svg="http://www.w3.org/2000/svg"
   xmlns="http://www.w3.org/2000/svg"
   xmlns:xlink="http://www.w3.org/1999/xlink"
   xmlns:sodipodi="http://sodipodi.sourceforge.net/DTD/sodipodi-0.dtd"
   xmlns:inkscape="http://www.inkscape.org/namespaces/inkscape"
   width="297.03207"
   height="297.03207"
   id="svg2"
   version="1.1"
   inkscape:version="0.48.2 r9819"
   sodipodi:docname="jeton_background_hasi-geco.svg">
  <defs
     id="defs4" />
  <sodipodi:namedview
     id="base"
     pagecolor="#ffffff"
     bordercolor="#666666"
     borderopacity="1.0"
     inkscape:pageopacity="0.0"
     inkscape:pageshadow="2"
     inkscape:zoom="2.2409047"
     inkscape:cx="57.00083"
     inkscape:cy="155.13204"
     inkscape:document-units="px"
     inkscape:current-layer="layer2"
     showgrid="false"
     inkscape:window-width="1678"
     inkscape:window-height="1029"
     inkscape:window-x="0"
     inkscape:window-y="19"
     inkscape:window-maximized="0"
     showguides="true"
     inkscape:guide-bbox="true"
     fit-margin-top="0"
     fit-margin-left="0"
     fit-margin-right="0"
     fit-margin-bottom="0" />
  <metadata
     id="metadata7">
    <rdf:RDF>
      <cc:Work
         rdf:about="">
        <dc:format>image/svg+xml</dc:format>
        <dc:type
           rdf:resource="http://purl.org/dc/dcmitype/StillImage" />
        <dc:title />
      </cc:Work>
    </rdf:RDF>
  </metadata>
  <g
     inkscape:label="Ebene 1"
     inkscape:groupmode="layer"
     id="layer1"
     style="display:inline"
     sodipodi:insensitive="true"
     transform="translate(-148.54585,-149.10167)">
    <g
       id="g3992">
      <path
         sodipodi:type="arc"
         style="fill:#2222aa;fill-opacity:1;stroke:none"
         id="color_back"
         sodipodi:cx="297.06189"
         sodipodi:cy="297.61771"
         sodipodi:rx="148.51604"
         sodipodi:ry="148.51604"
         d="m 445.57793,297.61771 c 0,82.02314 -66.4929,148.51603 -148.51604,148.51603 -82.02314,0 -148.51604,-66.49289 -148.51604,-148.51603 0,-82.02315 66.4929,-148.51604 148.51604,-148.51604 82.02314,0 148.51604,66.49289 148.51604,148.51604 z" />
      <path
         sodipodi:type="arc"
         style="fill:#f2f2f2;fill-opacity:1;stroke:none"
         id="grey_bg"
         sodipodi:cx="297.06189"
         sodipodi:cy="297.61771"
         sodipodi:rx="146.07045"
         sodipodi:ry="146.07045"
         d="m 443.13234,297.61771 c 0,80.67248 -65.39797,146.07045 -146.07045,146.07045 -80.67248,0 -146.07045,-65.39797 -146.07045,-146.07045 0,-80.67249 65.39797,-146.07045 146.07045,-146.07045 80.67248,0 146.07045,65.39796 146.07045,146.07045 z" />
      <g
         transform="translate(-60.438021,-207.2345)"
         id="wedges">
        <g
           id="g3081"
           transform="translate(-15.543937,60.448642)">
          <path
             sodipodi:type="arc"
             style="fill:#2222aa;fill-opacity:1;stroke:none"
             id="use3069"
             sodipodi:cx="297.06189"
             sodipodi:cy="297.61771"
             sodipodi:rx="146.78586"
             sodipodi:ry="146.78586"
             d="m 442.59197,316.7771 c -3.36317,25.54587 -13.3915,49.75639 -29.07703,70.19818 L 297.06189,297.61771 z"
             sodipodi:start="0.13089969"
             sodipodi:end="0.65449847"
             inkscape:transform-center-y="-73.392928"
             transform="matrix(-0.38268343,-0.92387953,0.92387953,-0.38268343,211.7616,832.74633)"
             inkscape:tile-x0="259.07092"
             inkscape:tile-y0="150.83185" />
          <path
             sodipodi:type="arc"
             style="fill:#2222aa;fill-opacity:1;stroke:none"
             id="use3071"
             sodipodi:cx="297.06189"
             sodipodi:cy="297.61771"
             sodipodi:rx="146.78586"
             sodipodi:ry="146.78586"
             d="m 442.59197,316.7771 c -3.36317,25.54587 -13.3915,49.75639 -29.07703,70.19818 L 297.06189,297.61771 z"
             sodipodi:start="0.13089969"
             sodipodi:end="0.65449847"
             inkscape:transform-center-y="-73.392928"
             transform="matrix(0.60876142,-0.79335334,0.79335334,0.60876142,-43.911975,498.90042)"
             inkscape:tile-x0="259.07092"
             inkscape:tile-y0="150.83185" />
          <path
             sodipodi:type="arc"
             style="fill:#2222aa;fill-opacity:1;stroke:none"
             id="use3073"
             sodipodi:cx="297.06189"
             sodipodi:cy="297.61771"
             sodipodi:rx="146.78586"
             sodipodi:ry="146.78586"
             d="m 442.59197,316.7771 c -3.36317,25.54587 -13.3915,49.75639 -29.07703,70.19818 L 297.06189,297.61771 z"
             sodipodi:start="0.13089969"
             sodipodi:end="0.65449847"
             inkscape:transform-center-y="-73.392928"
             transform="matrix(0.99144485,0.13052619,-0.13052619,0.99144485,117.37027,110.55766)"
             inkscape:tile-x0="259.07092"
             inkscape:tile-y0="150.83185" />
          <path
             sodipodi:type="arc"
             style="fill:#2222aa;fill-opacity:1;stroke:none"
             id="use3075"
             sodipodi:cx="297.06189"
             sodipodi:cy="297.61771"
             sodipodi:rx="146.78586"
             sodipodi:ry="146.78586"
             d="m 442.59197,316.7771 c -3.36317,25.54587 -13.3915,49.75639 -29.07703,70.19818 L 297.06189,297.61771 z"
             sodipodi:start="0.13089969"
             sodipodi:end="0.65449847"
             inkscape:transform-center-y="-73.392928"
             transform="matrix(0.38268343,0.92387953,-0.92387953,0.38268343,534.32609,56.0608)"
             inkscape:tile-x0="259.07092"
             inkscape:tile-y0="150.83185" />
          <path
             sodipodi:type="arc"
             style="fill:#2222aa;fill-opacity:1;stroke:none"
             id="use3077"
             sodipodi:cx="297.06189"
             sodipodi:cy="297.61771"
             sodipodi:rx="146.78586"
             sodipodi:ry="146.78586"
             d="m 442.59197,316.7771 c -3.36317,25.54587 -13.3915,49.75639 -29.07703,70.19818 L 297.06189,297.61771 z"
             sodipodi:start="0.13089969"
             sodipodi:end="0.65449847"
             inkscape:transform-center-y="-73.392928"
             transform="matrix(-0.60876142,0.79335334,-0.79335334,-0.60876142,789.99967,389.9067)"
             inkscape:tile-x0="259.07092"
             inkscape:tile-y0="150.83185" />
          <path
             sodipodi:type="arc"
             style="fill:#2222aa;fill-opacity:1;stroke:none"
             id="use3079"
             sodipodi:cx="297.06189"
             sodipodi:cy="297.61771"
             sodipodi:rx="146.78586"
             sodipodi:ry="146.78586"
             d="m 442.59197,316.7771 c -3.36317,25.54587 -13.3915,49.75639 -29.07703,70.19818 L 297.06189,297.61771 z"
             sodipodi:start="0.13089969"
             sodipodi:end="0.65449847"
             inkscape:transform-center-y="-73.392928"
             transform="matrix(-0.99144485,-0.13052619,0.13052619,-0.99144485,628.71742,778.24947)"
             inkscape:tile-x0="259.07092"
             inkscape:tile-y0="150.83185" />
        </g>
      </g>
      <path
         sodipodi:type="arc"
         style="fill:#f2f2f2;fill-opacity:1;stroke:none"
         id="grey_outer"
         sodipodi:cx="297.06189"
         sodipodi:cy="297.61771"
         sodipodi:rx="129.11372"
         sodipodi:ry="129.11372"
         d="m 426.17561,297.61771 c 0,71.30754 -57.80618,129.11372 -129.11372,129.11372 -71.30754,0 -129.11372,-57.80618 -129.11372,-129.11372 0,-71.30754 57.80618,-129.11373 129.11372,-129.11373 71.30754,0 129.11372,57.80619 129.11372,129.11373 z" />
      <path
         d="m 421.91923,297.61771 c 0,68.9568 -55.90054,124.85733 -124.85734,124.85733 -68.9568,0 -124.85734,-55.90053 -124.85734,-124.85733 0,-68.95681 55.90054,-124.85734 124.85734,-124.85734 68.9568,0 124.85734,55.90053 124.85734,124.85734 z"
         sodipodi:ry="124.85734"
         sodipodi:rx="124.85734"
         sodipodi:cy="297.61771"
         sodipodi:cx="297.06189"
         id="color_inner"
         style="fill:#2222aa;fill-opacity:1;stroke:none"
         sodipodi:type="arc" />
      <path
         sodipodi:type="arc"
         style="fill:#f2f2f2;fill-opacity:1;stroke:none"
         id="grey_inner"
         sodipodi:cx="297.06189"
         sodipodi:cy="297.61771"
         sodipodi:rx="107.08044"
         sodipodi:ry="107.08044"
         d="m 404.14233,297.61771 c 0,59.13889 -47.94155,107.08043 -107.08044,107.08043 -59.13889,0 -107.08044,-47.94154 -107.08044,-107.08043 0,-59.1389 47.94155,-107.08044 107.08044,-107.08044 59.13889,0 107.08044,47.94154 107.08044,107.08044 z" />
      <path
         d="m 399.17055,297.61771 c 0,56.39305 -45.71561,102.10865 -102.10866,102.10865 -56.39305,0 -102.10866,-45.7156 -102.10866,-102.10865 0,-56.39306 45.71561,-102.10866 102.10866,-102.10866 56.39305,0 102.10866,45.7156 102.10866,102.10866 z"
         sodipodi:ry="102.10866"
         sodipodi:rx="102.10866"
         sodipodi:cy="297.61771"
         sodipodi:cx="297.06189"
         id="color_center"
         style="fill:#2222aa;fill-opacity:1;stroke:none"
         sodipodi:type="arc" />
    </g>
  </g>
  <g
     inkscape:groupmode="layer"
     id="layer2"
     inkscape:label="Aufdruck"
     style="display:inline"
     transform="translate(-148.54585,-149.10167)">
    <path
       style="fill:none;stroke:none"
       d="m 407.10866,297.61771 c 0,60.77715 -49.26962,110.04677 -110.04677,110.04677 -60.77715,0 -110.04677,-49.26962 -110.04677,-110.04677 0,-60.77716 49.26962,-110.04678 110.04677,-110.04678 60.77715,0 110.04677,49.26962 110.04677,110.04678 z"
       id="path3958"
       inkscape:connector-curvature="0" />
    <text
       xml:space="preserve"
       style="font-size:32px;font-style:normal;font-variant:normal;font-weight:normal;font-stretch:normal;line-height:125%;letter-spacing:0px;word-spacing:0px;fill:#ffffff;fill-opacity:1;stroke:none;font-family:Channel;-inkscape-font-specification:Channel"
       id="text4009"
       sodipodi:linespacing="125%"
       transform="matrix(0.99095976,0.13415945,-0.13415945,0.99095976,42.622049,-37.164862)"><textPath
         xlink:href="#path3958"
         id="textPath4043"><tspan
   style="font-size:17px;font-style:normal;font-variant:normal;font-weight:normal;font-stretch:normal;fill:#ffffff;font-family:Nimbus Sans L;-inkscape-font-specification:Nimbus Sans L"
   id="tspan4011"><tspan
   id="tspan4013"
   style="font-size:17px;font-weight:bold;fill:#ffffff;-inkscape-font-specification:Nimbus Sans L Bold">Ha</tspan>rd <tspan
   id="tspan4015"
   style="font-size:17px;font-weight:bold;fill:#ffffff;-inkscape-font-specification:Nimbus Sans L Bold">S</tspan>pheres <tspan
   id="tspan4017"
   style="font-size:17px;font-weight:bold;fill:#ffffff;-inkscape-font-specification:Nimbus Sans L Bold">i</tspan>n <tspan
   id="tspan4019"
   style="font-size:17px;font-weight:bold;fill:#ffffff;-inkscape-font-specification:Nimbus Sans L Bold">G</tspan>eometric <tspan
   id="tspan4023"
   style="font-size:17px;font-weight:bold;fill:#ffffff;-inkscape-font-specification:Nimbus Sans L Bold">Co</tspan>nfinement   ♦   <tspan
   style="font-weight:bold;-inkscape-font-specification:Nimbus Sans L Bold"
   id="tspan3025">H</tspan>ard <tspan
   style="font-weight:bold;-inkscape-font-specification:Nimbus Sans L Bold"
   id="tspan3023">S</tspan>pheres <tspan
   style="font-weight:bold;-inkscape-font-specification:Nimbus Sans L Bold"
   id="tspan3021">i</tspan>n <tspan
   style="font-weight:bold;-inkscape-font-specification:Nimbus Sans L Bold"
   id="tspan3017">Ge</tspan>ometric <tspan
   style="font-weight:bold;-inkscape-font-specification:Nimbus Sans L Bold"
   id="tspan3019">Co</tspan>nfinement   ♦</tspan></textPath></text>
    <g
       id="g3055"
       transform="matrix(1.0195647,0,0,1.0195647,-7.2750479,-0.90075576)">
      <path
         transform="matrix(0.34161829,0.08922962,-0.08922962,0.34161829,242.85577,203.53217)"
         d="m 401.29924,258.72293 c 0,72.53043 -58.79753,131.32796 -131.32796,131.32796 -72.53043,0 -131.32795,-58.79753 -131.32795,-131.32796 0,-72.53043 58.79752,-131.32796 131.32795,-131.32796 72.53043,0 131.32796,58.79753 131.32796,131.32796 z"
         sodipodi:ry="131.32796"
         sodipodi:rx="131.32796"
         sodipodi:cy="258.72293"
         sodipodi:cx="269.97128"
         id="path3000"
         style="fill:#ffffff;fill-opacity:1;stroke:none"
         sodipodi:type="arc" />
      <path
         transform="matrix(0.34161829,0.08922962,-0.08922962,0.34161829,238.6978,196.09004)"
         d="m 362.28405,410.25522 c 0,8.84987 -7.17423,16.0241 -16.0241,16.0241 -8.84987,0 -16.0241,-7.17423 -16.0241,-16.0241 0,-8.84987 7.17423,-16.0241 16.0241,-16.0241 8.84987,0 16.0241,7.17423 16.0241,16.0241 z"
         sodipodi:ry="16.024101"
         sodipodi:rx="16.024101"
         sodipodi:cy="410.25522"
         sodipodi:cx="346.25995"
         id="path3002"
         style="fill:#ffffff;fill-opacity:1;stroke:none"
         sodipodi:type="arc" />
      <path
         sodipodi:type="arc"
         style="fill:#ffffff;fill-opacity:1;stroke:none"
         id="path3004"
         sodipodi:cx="346.25995"
         sodipodi:cy="410.25522"
         sodipodi:rx="16.024101"
         sodipodi:ry="16.024101"
         d="m 362.28405,410.25522 c 0,8.84987 -7.17423,16.0241 -16.0241,16.0241 -8.84987,0 -16.0241,-7.17423 -16.0241,-16.0241 0,-8.84987 7.17423,-16.0241 16.0241,-16.0241 8.84987,0 16.0241,7.17423 16.0241,16.0241 z"
         transform="matrix(0.34161829,0.08922962,-0.08922962,0.34161829,249.40983,193.0404)" />
      <path
         sodipodi:type="arc"
         style="fill:#ffffff;fill-opacity:1;stroke:none"
         id="path3006"
         sodipodi:cx="346.25995"
         sodipodi:cy="410.25522"
         sodipodi:rx="16.024101"
         sodipodi:ry="16.024101"
         d="m 362.28405,410.25522 c 0,8.84987 -7.17423,16.0241 -16.0241,16.0241 -8.84987,0 -16.0241,-7.17423 -16.0241,-16.0241 0,-8.84987 7.17423,-16.0241 16.0241,-16.0241 8.84987,0 16.0241,7.17423 16.0241,16.0241 z"
         transform="matrix(0.02122691,0.35244062,-0.35244062,0.02122691,403.71853,210.15816)" />
      <path
         transform="matrix(0.02122691,0.35244062,-0.35244062,0.02122691,410.18838,219.3795)"
         d="m 362.28405,410.25522 c 0,8.84987 -7.17423,16.0241 -16.0241,16.0241 -8.84987,0 -16.0241,-7.17423 -16.0241,-16.0241 0,-8.84987 7.17423,-16.0241 16.0241,-16.0241 8.84987,0 16.0241,7.17423 16.0241,16.0241 z"
         sodipodi:ry="16.024101"
         sodipodi:rx="16.024101"
         sodipodi:cy="410.25522"
         sodipodi:cx="346.25995"
         id="path3008"
         style="fill:#ffffff;fill-opacity:1;stroke:none"
         sodipodi:type="arc" />
      <path
         transform="matrix(0.34161829,0.08922962,-0.08922962,0.34161829,239.76895,167.89807)"
         d="m 517.64817,342.67529 c 0,23.08661 -18.7154,41.80201 -41.80201,41.80201 -23.08661,0 -41.802,-18.7154 -41.802,-41.80201 0,-23.08661 18.71539,-41.802 41.802,-41.802 23.08661,0 41.80201,18.71539 41.80201,41.802 z"
         sodipodi:ry="41.802006"
         sodipodi:rx="41.802006"
         sodipodi:cy="342.67529"
         sodipodi:cx="475.84616"
         id="path3010"
         style="fill:#ffffff;fill-opacity:1;stroke:none"
         sodipodi:type="arc" />
      <path
         transform="matrix(0.34161829,0.08922962,-0.08922962,0.34161829,236.30101,301.26242)"
         d="m 115.65221,-119.23685 c 0,45.018892 -36.495016,81.513911 -81.513904,81.513911 -45.018889,0 -81.513909,-36.495019 -81.513909,-81.513911 0,-45.01889 36.49502,-81.51391 81.513909,-81.51391 45.018888,0 81.513904,36.49502 81.513904,81.51391 z"
         sodipodi:ry="81.513908"
         sodipodi:rx="81.513908"
         sodipodi:cy="-119.23685"
         sodipodi:cx="34.138306"
         id="path3012"
         style="fill:#ffffff;fill-opacity:1;stroke:none"
         sodipodi:type="arc" />
      <path
         transform="matrix(0.35307928,0,0,0.35307928,232.50149,219.11624)"
         d="m 40.408605,206.81879 c 0,7.31076 -5.926542,13.2373 -13.237302,13.2373 -7.31076,0 -13.237302,-5.92654 -13.237302,-13.2373 0,-7.31076 5.926542,-13.23731 13.237302,-13.23731 7.31076,0 13.237302,5.92655 13.237302,13.23731 z"
         sodipodi:ry="13.237302"
         sodipodi:rx="13.237302"
         sodipodi:cy="206.81879"
         sodipodi:cx="27.171303"
         id="path3014"
         style="fill:#ffffff;fill-opacity:1;stroke:none"
         sodipodi:type="arc" />
      <path
         sodipodi:type="arc"
         style="fill:#ffffff;fill-opacity:1;stroke:none"
         id="path3016"
         sodipodi:cx="27.171303"
         sodipodi:cy="206.81879"
         sodipodi:rx="13.237302"
         sodipodi:ry="13.237302"
         d="m 40.408605,206.81879 c 0,7.31076 -5.926542,13.2373 -13.237302,13.2373 -7.31076,0 -13.237302,-5.92654 -13.237302,-13.2373 0,-7.31076 5.926542,-13.23731 13.237302,-13.23731 7.31076,0 13.237302,5.92655 13.237302,13.23731 z"
         transform="matrix(0.35307928,0,0,0.35307928,241.16872,222.48082)" />
      <path
         sodipodi:nodetypes="zzczzczzcz"
         inkscape:connector-curvature="0"
         id="path3020"
         d="m 245.57781,287.05726 c 0.46368,2.02031 1.95646,3.34314 2.78307,1.21759 0.8266,-2.12556 0.5798,-7.07363 0.86971,-10.61043 3.07296,-1.85538 7.57973,-3.87876 9.21889,-5.56613 1.63916,-1.68737 -1.42041,-1.19051 -3.30488,-0.52182 -1.88448,0.66868 -4.98633,2.89902 -7.47949,4.34853 -1.56547,-1.85537 -3.38504,-4.56698 -4.69642,-5.56612 -1.31138,-0.99915 -3.34659,-1.82199 -2.60912,0 0.73747,1.82199 3.71075,4.87035 5.56613,7.30554 -0.11596,3.13094 -0.81156,7.37252 -0.34789,9.39284 z"
         style="color:#000000;fill:#2222aa;fill-opacity:1;stroke:none;stroke-width:2.20000005;marker:none;visibility:visible;display:inline;overflow:visible;enable-background:accumulate" />
      <path
         transform="matrix(0.35307928,0,0,0.35307928,190.61232,208.67976)"
         d="m 191.14485,117.05011 c 0,13.87599 -11.24871,25.12471 -25.12471,25.12471 -13.87599,0 -25.12471,-11.24872 -25.12471,-25.12471 0,-13.87599 11.24872,-25.12471 25.12471,-25.12471 13.876,0 25.12471,11.24872 25.12471,25.12471 z"
         sodipodi:ry="25.12471"
         sodipodi:rx="25.12471"
         sodipodi:cy="117.05011"
         sodipodi:cx="166.02014"
         id="path3024"
         style="fill:#2222aa;fill-opacity:1;stroke:none"
         sodipodi:type="arc" />
      <path
         sodipodi:type="arc"
         style="fill:#2222aa;fill-opacity:1;stroke:none"
         id="path3026"
         sodipodi:cx="166.02014"
         sodipodi:cy="117.05011"
         sodipodi:rx="25.12471"
         sodipodi:ry="25.12471"
         d="m 191.14485,117.05011 c 0,13.87599 -11.24871,25.12471 -25.12471,25.12471 -13.87599,0 -25.12471,-11.24872 -25.12471,-25.12471 0,-13.87599 11.24872,-25.12471 25.12471,-25.12471 13.876,0 25.12471,11.24872 25.12471,25.12471 z"
         transform="matrix(0.35307928,0,0,0.35307928,209.74588,215.28953)" />
      <path
         transform="matrix(0.35307928,0,0,0.35307928,213.57259,217.52093)"
         d="m 161.58637,119.02068 c 0,7.89027 -6.39632,14.2866 -14.2866,14.2866 -7.89027,0 -14.28659,-6.39633 -14.28659,-14.2866 0,-7.89027 6.39632,-14.2866 14.28659,-14.2866 7.89028,0 14.2866,6.39633 14.2866,14.2866 z"
         sodipodi:ry="14.286599"
         sodipodi:rx="14.286599"
         sodipodi:cy="119.02068"
         sodipodi:cx="147.29977"
         id="path3030"
         style="fill:#ffffff;fill-opacity:1;stroke:none"
         sodipodi:type="arc" />
      <path
         sodipodi:type="arc"
         style="fill:#ffffff;fill-opacity:1;stroke:none"
         id="path3032"
         sodipodi:cx="147.29977"
         sodipodi:cy="119.02068"
         sodipodi:rx="14.286599"
         sodipodi:ry="14.286599"
         d="m 161.58637,119.02068 c 0,7.89027 -6.39632,14.2866 -14.2866,14.2866 -7.89027,0 -14.28659,-6.39633 -14.28659,-14.2866 0,-7.89027 6.39632,-14.2866 14.28659,-14.2866 7.89028,0 14.2866,6.39633 14.2866,14.2866 z"
         transform="matrix(0.35307928,0,0,0.35307928,194.15083,210.62295)" />
      <path
         transform="matrix(0.35307928,0,0,0.35307928,214.38773,237.23512)"
         d="m 175.56842,-46.780045 c 0,22.701833 -18.40347,41.1053052 -41.1053,41.1053052 -22.70183,0 -41.105305,-18.4034722 -41.105305,-41.1053052 0,-22.701832 18.403475,-41.105304 41.105305,-41.105304 22.70183,0 41.1053,18.403472 41.1053,41.105304 z"
         sodipodi:ry="41.105305"
         sodipodi:rx="41.105305"
         sodipodi:cy="-46.780045"
         sodipodi:cx="134.46312"
         id="path3034"
         style="fill:#ffffff;fill-opacity:1;stroke:none"
         sodipodi:type="arc" />
      <path
         sodipodi:type="arc"
         style="fill:#ffffff;fill-opacity:1;stroke:none"
         id="path3036"
         sodipodi:cx="134.46312"
         sodipodi:cy="-46.780045"
         sodipodi:rx="41.105305"
         sodipodi:ry="41.105305"
         d="m 175.56842,-46.780045 c 0,22.701833 -18.40347,41.1053052 -41.1053,41.1053052 -22.70183,0 -41.105305,-18.4034722 -41.105305,-41.1053052 0,-22.701832 18.403475,-41.105304 41.105305,-41.105304 22.70183,0 41.1053,18.403472 41.1053,41.105304 z"
         transform="matrix(0.35307928,0,0,0.35307928,240.95469,249.04266)" />
      <path
         transform="matrix(0.35307928,0,0,0.35307928,208.48396,254.94643)"
         d="m 241.05822,-53.747047 c 0,13.467188 -10.91731,24.384502 -24.3845,24.384502 -13.46719,0 -24.3845,-10.917314 -24.3845,-24.384502 0,-13.467189 10.91731,-24.384503 24.3845,-24.384503 13.46719,0 24.3845,10.917314 24.3845,24.384503 z"
         sodipodi:ry="24.384502"
         sodipodi:rx="24.384502"
         sodipodi:cy="-53.747047"
         sodipodi:cx="216.67372"
         id="path3038"
         style="fill:#2222aa;fill-opacity:1;stroke:none"
         sodipodi:type="arc" />
      <path
         sodipodi:type="arc"
         style="fill:#2222aa;fill-opacity:1;stroke:none"
         id="path3040"
         sodipodi:cx="216.67372"
         sodipodi:cy="-53.747047"
         sodipodi:rx="24.384502"
         sodipodi:ry="24.384502"
         d="m 241.05822,-53.747047 c 0,13.467188 -10.91731,24.384502 -24.3845,24.384502 -13.46719,0 -24.3845,-10.917314 -24.3845,-24.384502 0,-13.467189 10.91731,-24.384503 24.3845,-24.384503 13.46719,0 24.3845,10.917314 24.3845,24.384503 z"
         transform="matrix(0.35307928,0,0,0.35307928,185.36087,244.61483)" />
      <path
         sodipodi:nodetypes="czzczzczzczzczczzczzczczzczzczzczzczcczczzczzczzczzczczzzzzzczczzczzczzczzczccsc"
         inkscape:connector-curvature="0"
         id="path3043"
         d="m 368.64657,327.47778 c 0,0 -0.99395,-6.46183 0.66543,-7.64983 1.65937,-1.18801 2.75633,-0.90085 3.71258,0.9438 0.95623,1.84466 -2.10155,7.082 -2.10155,7.082 0,0 4.09965,-5.04058 6.34946,-4.42925 2.24982,0.61134 3.02396,2.41156 1.91702,4.4806 -1.10695,2.06903 -7.94341,1.93032 -7.94341,1.93032 0,0 5.63034,2.66138 5.82056,4.91346 0.19022,2.25208 -1.15871,3.89284 -3.39904,3.56108 -2.24034,-0.33177 -3.54079,-6.9956 -3.54079,-6.9956 0,0 0.51887,7.14793 -1.68609,8.22577 -2.20496,1.07784 -4.51335,-0.61788 -4.92933,-2.79338 -0.41597,-2.17551 4.77816,-5.94057 4.77816,-5.94057 0,0 -18.30186,-7.93102 -23.82604,-7.22122 -5.52418,0.7098 -9.4798,5.56613 -9.4798,5.56613 0.39935,6.38973 2.60826,11.46461 -1.39154,17.2202 -3.9998,5.75559 -11.0005,9.24238 -19.48144,10.61043 -8.48094,1.36805 -26.61304,-1.21759 -26.61304,-1.21759 0,0 14.64915,-1.31174 20.69903,-3.65277 6.04988,-2.34103 9.52253,-5.43848 12.18102,-9.81277 2.65849,-4.37429 1.27496,-9.0102 0.39009,-11.72613 0,0 -6.81683,-3.77565 -12.29528,-2.75834 -5.47844,1.01732 -13.49538,10.03404 -13.49538,10.03404 0,0 7.35597,1.67098 7.82736,4.1746 0.4714,2.50361 -1.55292,5.08296 -4.17459,4.87035 -2.62167,-0.2126 -4.62437,-6.52536 -4.62437,-6.52536 0,0 2.82291,6.99659 0.62372,8.7866 -2.1992,1.79001 -5.31572,0.55933 -6.43584,-1.91335 -1.12011,-2.47269 2.7707,-8.20509 2.7707,-8.20509 0,0 -6.45551,3.12587 -8.85865,1.59531 -2.40313,-1.53055 -3.73165,-4.47034 -1.56547,-6.60977 2.16618,-2.13943 9.65631,1.7991 9.65631,1.7991 0,0 -7.15143,-5.66273 -6.52537,-9.10464 0.62607,-3.44191 3.95428,-5.53483 6.95766,-4.1746 3.00339,1.36023 2.0873,11.48014 2.0873,11.48014 0,0 8.18354,-10.16675 14.06453,-11.23927 5.881,-1.07252 11.33093,-0.24087 11.33093,-0.24087 -1.01928,1.26314 -10.44561,-12.66212 -13.48047,-22.52542 0,0 -10.93151,-8.21467 -18.35082,-11.48013 -7.41932,-3.26546 -13.28798,-9.18287 -13.28798,-9.18287 0,0 1.35532,7.72654 -0.69577,9.04495 -2.05109,1.31842 -4.44261,0.35604 -5.21824,-1.91336 -0.77563,-2.26939 3.71246,-7.41798 3.71246,-7.41798 0,0 -6.73597,3.36819 -8.75676,1.50398 -2.0208,-1.86421 -1.73598,-5.0954 0.52182,-6.60978 2.25781,-1.51438 8.26569,2.06529 8.26569,2.06529 0,0 -4.88119,-4.7757 -3.74321,-7.28354 1.13797,-2.50783 5.04599,-3.02944 6.95766,-1.39153 1.91167,1.63791 -0.1019,7.54008 -0.1019,7.54008 0,0 2.87379,-5.71253 5.32014,-5.62672 2.44635,0.0858 4.73173,2.5066 4.00065,5.0443 -0.73107,2.53771 -8.87101,3.13095 -8.87101,3.13095 0,0 7.72119,6.30212 13.46192,8.48711 5.74073,2.18498 16.52444,7.56645 16.52444,7.56645 0,0 -0.0465,-2.57732 -0.52183,-4.34854 -0.47528,-1.77121 -3.01404,-2.43163 -2.60912,-6.08795 0.40492,-3.65631 4.94242,-10.68155 9.04496,-12.34984 4.10253,-1.66829 6.91185,-1.00997 9.91466,2.08729 3.00281,3.09726 4.35018,13.76167 2.95701,15.91565 -1.39318,2.15398 -3.64643,1.66564 -4.7834,3.30488 -1.13696,1.63925 -1.30455,3.39186 -1.30455,3.39186 0,0 9.12025,-1.21337 11.72612,-2.957 2.60588,-1.74363 3.92861,-5.56612 3.92861,-5.56612 0,0 -6.64503,1.45817 -8.00131,-0.52183 -1.35628,-1.98 -0.34702,-5.39919 1.91335,-6.08795 2.26038,-0.68876 6.33395,4.50137 6.33395,4.50137 0,0 -3.57606,-6.06731 -1.98541,-7.80626 1.59066,-1.73895 4.54707,-1.26333 5.74007,0.69577 1.193,1.9591 -1.18413,7.23349 -1.18413,7.23349 0,0 3.35084,-4.87919 5.70661,-4.27649 2.35577,0.60271 4.08649,3.03695 2.957,5.21825 -1.12948,2.18129 -8.0821,1.17719 -8.0821,1.17719 0,0 7.37823,2.2183 7.90816,4.91076 0.52993,2.69246 -1.04279,5.41177 -3.82671,5.21824 -2.78392,-0.19353 -4.87036,-9.04495 -4.87036,-9.04495 0,0 -2.28182,5.15431 -4.64097,7.00813 -2.35914,1.85383 -7.36175,3.97712 -10.33196,4.87611 4.72889,8.71685 8.19417,12.01273 11.58107,21.94737 6.46636,-3.31521 8.27786,-5.06822 14.54068,-4.01186 5.35182,0.90271 13.57035,4.95018 22.16614,9.55712 z"
         style="color:#000000;fill:#2222aa;fill-opacity:1;stroke:none;stroke-width:2.20000005;marker:none;visibility:visible;display:inline;overflow:visible;enable-background:accumulate" />
    </g>
  </g>
</svg>
