<?xml version="1.0" encoding="UTF-8" standalone="no"?>
<!-- Created with Inkscape (http://www.inkscape.org/) -->

<svg
   xmlns:dc="http://purl.org/dc/elements/1.1/"
   xmlns:cc="http://creativecommons.org/ns#"
   xmlns:rdf="http://www.w3.org/1999/02/22-rdf-syntax-ns#"
   xmlns:svg="http://www.w3.org/2000/svg"
   xmlns="http://www.w3.org/2000/svg"
   xmlns:xlink="http://www.w3.org/1999/xlink"
   xmlns:sodipodi="http://sodipodi.sourceforge.net/DTD/sodipodi-0.dtd"
   xmlns:inkscape="http://www.inkscape.org/namespaces/inkscape"
   width="297.03207"
   height="297.03207"
   id="svg2"
   version="1.1"
   inkscape:version="0.48.2 r9819"
   sodipodi:docname="jeton_hasi-geco.svg"
   inkscape:export-filename="/home/johannes/Documents/Uni/Promotion/Prog/hasi-geco/logo_art/jeton_hasi-geco.png"
   inkscape:export-xdpi="77.57"
   inkscape:export-ydpi="77.57">
  <defs
     id="defs4" />
  <sodipodi:namedview
     id="base"
     pagecolor="#ffffff"
     bordercolor="#666666"
     borderopacity="1.0"
     inkscape:pageopacity="0.0"
     inkscape:pageshadow="2"
     inkscape:zoom="1.0841148"
     inkscape:cx="78.778302"
     inkscape:cy="78.833951"
     inkscape:document-units="px"
     inkscape:current-layer="layer2"
     showgrid="false"
     inkscape:window-width="1678"
     inkscape:window-height="1029"
     inkscape:window-x="0"
     inkscape:window-y="19"
     inkscape:window-maximized="0"
     showguides="true"
     inkscape:guide-bbox="true"
     fit-margin-top="0"
     fit-margin-left="0"
     fit-margin-right="0"
     fit-margin-bottom="0" />
  <metadata
     id="metadata7">
    <rdf:RDF>
      <cc:Work
         rdf:about="">
        <dc:format>image/svg+xml</dc:format>
        <dc:type
           rdf:resource="http://purl.org/dc/dcmitype/StillImage" />
        <dc:title></dc:title>
      </cc:Work>
    </rdf:RDF>
  </metadata>
  <g
     inkscape:label="Ebene 1"
     inkscape:groupmode="layer"
     id="layer1"
     style="display:inline"
     sodipodi:insensitive="true"
     transform="translate(-148.54585,-149.10167)">
    <g
       id="g3992">
      <path
         sodipodi:type="arc"
         style="fill:#2222aa;fill-opacity:1;stroke:none"
         id="color_back"
         sodipodi:cx="297.06189"
         sodipodi:cy="297.61771"
         sodipodi:rx="148.51604"
         sodipodi:ry="148.51604"
         d="m 445.57793,297.61771 c 0,82.02314 -66.4929,148.51603 -148.51604,148.51603 -82.02314,0 -148.51604,-66.49289 -148.51604,-148.51603 0,-82.02315 66.4929,-148.51604 148.51604,-148.51604 82.02314,0 148.51604,66.49289 148.51604,148.51604 z" />
      <path
         sodipodi:type="arc"
         style="fill:#f2f2f2;fill-opacity:1;stroke:none"
         id="grey_bg"
         sodipodi:cx="297.06189"
         sodipodi:cy="297.61771"
         sodipodi:rx="146.07045"
         sodipodi:ry="146.07045"
         d="m 443.13234,297.61771 c 0,80.67248 -65.39797,146.07045 -146.07045,146.07045 -80.67248,0 -146.07045,-65.39797 -146.07045,-146.07045 0,-80.67249 65.39797,-146.07045 146.07045,-146.07045 80.67248,0 146.07045,65.39796 146.07045,146.07045 z" />
      <g
         transform="translate(-60.438021,-207.2345)"
         id="wedges">
        <g
           id="g3081"
           transform="translate(-15.543937,60.448642)">
          <path
             sodipodi:type="arc"
             style="fill:#2222aa;fill-opacity:1;stroke:none"
             id="use3069"
             sodipodi:cx="297.06189"
             sodipodi:cy="297.61771"
             sodipodi:rx="146.78586"
             sodipodi:ry="146.78586"
             d="m 442.59197,316.7771 c -3.36317,25.54587 -13.3915,49.75639 -29.07703,70.19818 L 297.06189,297.61771 z"
             sodipodi:start="0.13089969"
             sodipodi:end="0.65449847"
             inkscape:transform-center-y="-73.392928"
             transform="matrix(-0.38268343,-0.92387953,0.92387953,-0.38268343,211.7616,832.74633)"
             inkscape:tile-x0="259.07092"
             inkscape:tile-y0="150.83185" />
          <path
             sodipodi:type="arc"
             style="fill:#2222aa;fill-opacity:1;stroke:none"
             id="use3071"
             sodipodi:cx="297.06189"
             sodipodi:cy="297.61771"
             sodipodi:rx="146.78586"
             sodipodi:ry="146.78586"
             d="m 442.59197,316.7771 c -3.36317,25.54587 -13.3915,49.75639 -29.07703,70.19818 L 297.06189,297.61771 z"
             sodipodi:start="0.13089969"
             sodipodi:end="0.65449847"
             inkscape:transform-center-y="-73.392928"
             transform="matrix(0.60876142,-0.79335334,0.79335334,0.60876142,-43.911975,498.90042)"
             inkscape:tile-x0="259.07092"
             inkscape:tile-y0="150.83185" />
          <path
             sodipodi:type="arc"
             style="fill:#2222aa;fill-opacity:1;stroke:none"
             id="use3073"
             sodipodi:cx="297.06189"
             sodipodi:cy="297.61771"
             sodipodi:rx="146.78586"
             sodipodi:ry="146.78586"
             d="m 442.59197,316.7771 c -3.36317,25.54587 -13.3915,49.75639 -29.07703,70.19818 L 297.06189,297.61771 z"
             sodipodi:start="0.13089969"
             sodipodi:end="0.65449847"
             inkscape:transform-center-y="-73.392928"
             transform="matrix(0.99144485,0.13052619,-0.13052619,0.99144485,117.37027,110.55766)"
             inkscape:tile-x0="259.07092"
             inkscape:tile-y0="150.83185" />
          <path
             sodipodi:type="arc"
             style="fill:#2222aa;fill-opacity:1;stroke:none"
             id="use3075"
             sodipodi:cx="297.06189"
             sodipodi:cy="297.61771"
             sodipodi:rx="146.78586"
             sodipodi:ry="146.78586"
             d="m 442.59197,316.7771 c -3.36317,25.54587 -13.3915,49.75639 -29.07703,70.19818 L 297.06189,297.61771 z"
             sodipodi:start="0.13089969"
             sodipodi:end="0.65449847"
             inkscape:transform-center-y="-73.392928"
             transform="matrix(0.38268343,0.92387953,-0.92387953,0.38268343,534.32609,56.0608)"
             inkscape:tile-x0="259.07092"
             inkscape:tile-y0="150.83185" />
          <path
             sodipodi:type="arc"
             style="fill:#2222aa;fill-opacity:1;stroke:none"
             id="use3077"
             sodipodi:cx="297.06189"
             sodipodi:cy="297.61771"
             sodipodi:rx="146.78586"
             sodipodi:ry="146.78586"
             d="m 442.59197,316.7771 c -3.36317,25.54587 -13.3915,49.75639 -29.07703,70.19818 L 297.06189,297.61771 z"
             sodipodi:start="0.13089969"
             sodipodi:end="0.65449847"
             inkscape:transform-center-y="-73.392928"
             transform="matrix(-0.60876142,0.79335334,-0.79335334,-0.60876142,789.99967,389.9067)"
             inkscape:tile-x0="259.07092"
             inkscape:tile-y0="150.83185" />
          <path
             sodipodi:type="arc"
             style="fill:#2222aa;fill-opacity:1;stroke:none"
             id="use3079"
             sodipodi:cx="297.06189"
             sodipodi:cy="297.61771"
             sodipodi:rx="146.78586"
             sodipodi:ry="146.78586"
             d="m 442.59197,316.7771 c -3.36317,25.54587 -13.3915,49.75639 -29.07703,70.19818 L 297.06189,297.61771 z"
             sodipodi:start="0.13089969"
             sodipodi:end="0.65449847"
             inkscape:transform-center-y="-73.392928"
             transform="matrix(-0.99144485,-0.13052619,0.13052619,-0.99144485,628.71742,778.24947)"
             inkscape:tile-x0="259.07092"
             inkscape:tile-y0="150.83185" />
        </g>
      </g>
      <path
         sodipodi:type="arc"
         style="fill:#f2f2f2;fill-opacity:1;stroke:none"
         id="grey_outer"
         sodipodi:cx="297.06189"
         sodipodi:cy="297.61771"
         sodipodi:rx="129.11372"
         sodipodi:ry="129.11372"
         d="m 426.17561,297.61771 c 0,71.30754 -57.80618,129.11372 -129.11372,129.11372 -71.30754,0 -129.11372,-57.80618 -129.11372,-129.11372 0,-71.30754 57.80618,-129.11373 129.11372,-129.11373 71.30754,0 129.11372,57.80619 129.11372,129.11373 z" />
      <path
         d="m 421.91923,297.61771 c 0,68.9568 -55.90054,124.85733 -124.85734,124.85733 -68.9568,0 -124.85734,-55.90053 -124.85734,-124.85733 0,-68.95681 55.90054,-124.85734 124.85734,-124.85734 68.9568,0 124.85734,55.90053 124.85734,124.85734 z"
         sodipodi:ry="124.85734"
         sodipodi:rx="124.85734"
         sodipodi:cy="297.61771"
         sodipodi:cx="297.06189"
         id="color_inner"
         style="fill:#2222aa;fill-opacity:1;stroke:none"
         sodipodi:type="arc" />
      <path
         sodipodi:type="arc"
         style="fill:#f2f2f2;fill-opacity:1;stroke:none"
         id="grey_inner"
         sodipodi:cx="297.06189"
         sodipodi:cy="297.61771"
         sodipodi:rx="107.08044"
         sodipodi:ry="107.08044"
         d="m 404.14233,297.61771 c 0,59.13889 -47.94155,107.08043 -107.08044,107.08043 -59.13889,0 -107.08044,-47.94154 -107.08044,-107.08043 0,-59.1389 47.94155,-107.08044 107.08044,-107.08044 59.13889,0 107.08044,47.94154 107.08044,107.08044 z" />
      <path
         d="m 399.17055,297.61771 c 0,56.39305 -45.71561,102.10865 -102.10866,102.10865 -56.39305,0 -102.10866,-45.7156 -102.10866,-102.10865 0,-56.39306 45.71561,-102.10866 102.10866,-102.10866 56.39305,0 102.10866,45.7156 102.10866,102.10866 z"
         sodipodi:ry="102.10866"
         sodipodi:rx="102.10866"
         sodipodi:cy="297.61771"
         sodipodi:cx="297.06189"
         id="color_center"
         style="fill:#2222aa;fill-opacity:1;stroke:none"
         sodipodi:type="arc" />
    </g>
  </g>
  <g
     inkscape:groupmode="layer"
     id="layer2"
     inkscape:label="Aufdruck"
     style="display:inline"
     transform="translate(-148.54585,-149.10167)">
    <path
       style="fill:none;stroke:none"
       d="m 407.10866,297.61771 c 0,60.77715 -49.26962,110.04677 -110.04677,110.04677 -60.77715,0 -110.04677,-49.26962 -110.04677,-110.04677 0,-60.77716 49.26962,-110.04678 110.04677,-110.04678 60.77715,0 110.04677,49.26962 110.04677,110.04678 z"
       id="path3958"
       inkscape:connector-curvature="0" />
    <text
       xml:space="preserve"
       style="font-size:32px;font-style:normal;font-variant:normal;font-weight:normal;font-stretch:normal;line-height:125%;letter-spacing:0px;word-spacing:0px;fill:#ffffff;fill-opacity:1;stroke:none;font-family:Channel;-inkscape-font-specification:Channel"
       id="text4009"
       sodipodi:linespacing="125%"
       transform="matrix(0.99095976,0.13415945,-0.13415945,0.99095976,42.622049,-37.164862)"><textPath
         xlink:href="#path3958"
         id="textPath4043"><tspan
   style="font-size:17px;font-style:normal;font-variant:normal;font-weight:normal;font-stretch:normal;fill:#ffffff;font-family:Nimbus Sans L;-inkscape-font-specification:Nimbus Sans L"
   id="tspan4011"><tspan
   id="tspan4013"
   style="font-size:17px;font-weight:bold;fill:#ffffff;-inkscape-font-specification:Nimbus Sans L Bold">Ha</tspan>rd <tspan
   id="tspan4015"
   style="font-size:17px;font-weight:bold;fill:#ffffff;-inkscape-font-specification:Nimbus Sans L Bold">S</tspan>pheres <tspan
   id="tspan4017"
   style="font-size:17px;font-weight:bold;fill:#ffffff;-inkscape-font-specification:Nimbus Sans L Bold">i</tspan>n <tspan
   id="tspan4019"
   style="font-size:17px;font-weight:bold;fill:#ffffff;-inkscape-font-specification:Nimbus Sans L Bold">G</tspan>eometric <tspan
   id="tspan4023"
   style="font-size:17px;font-weight:bold;fill:#ffffff;-inkscape-font-specification:Nimbus Sans L Bold">Co</tspan>nfinement   ♦   <tspan
   style="font-weight:bold;-inkscape-font-specification:Nimbus Sans L Bold"
   id="tspan3034">Ha</tspan>rd <tspan
   style="font-weight:bold;-inkscape-font-specification:Nimbus Sans L Bold"
   id="tspan3023">S</tspan>pheres <tspan
   style="font-weight:bold;-inkscape-font-specification:Nimbus Sans L Bold"
   id="tspan3021">i</tspan>n <tspan
   style="font-weight:bold;-inkscape-font-specification:Nimbus Sans L Bold"
   id="tspan3017">Ge</tspan>ometric <tspan
   style="font-weight:bold;-inkscape-font-specification:Nimbus Sans L Bold"
   id="tspan3019">Co</tspan>nfinement   ♦</tspan></textPath></text>
    <g
       id="g3051">
      <path
         transform="matrix(0.34830195,0.09097537,-0.09097537,0.34830195,240.33212,206.61346)"
         d="m 401.29924,258.72293 c 0,72.53043 -58.79753,131.32796 -131.32796,131.32796 -72.53043,0 -131.32795,-58.79753 -131.32795,-131.32796 0,-72.53043 58.79752,-131.32796 131.32795,-131.32796 72.53043,0 131.32796,58.79753 131.32796,131.32796 z"
         sodipodi:ry="131.32796"
         sodipodi:rx="131.32796"
         sodipodi:cy="258.72293"
         sodipodi:cx="269.97128"
         id="path3000"
         style="fill:#ffffff;fill-opacity:1;stroke:none"
         sodipodi:type="arc" />
      <path
         transform="matrix(0.34830195,0.09097537,-0.09097537,0.34830195,236.0928,199.02573)"
         d="m 362.28405,410.25522 c 0,8.84987 -7.17423,16.0241 -16.0241,16.0241 -8.84987,0 -16.0241,-7.17423 -16.0241,-16.0241 0,-8.84987 7.17423,-16.0241 16.0241,-16.0241 8.84987,0 16.0241,7.17423 16.0241,16.0241 z"
         sodipodi:ry="16.024101"
         sodipodi:rx="16.024101"
         sodipodi:cy="410.25522"
         sodipodi:cx="346.25995"
         id="path3002"
         style="fill:#ffffff;fill-opacity:1;stroke:none"
         sodipodi:type="arc" />
      <path
         sodipodi:type="arc"
         style="fill:#ffffff;fill-opacity:1;stroke:none"
         id="path3004"
         sodipodi:cx="346.25995"
         sodipodi:cy="410.25522"
         sodipodi:rx="16.024101"
         sodipodi:ry="16.024101"
         d="m 362.28405,410.25522 c 0,8.84987 -7.17423,16.0241 -16.0241,16.0241 -8.84987,0 -16.0241,-7.17423 -16.0241,-16.0241 0,-8.84987 7.17423,-16.0241 16.0241,-16.0241 8.84987,0 16.0241,7.17423 16.0241,16.0241 z"
         transform="matrix(0.34830195,0.09097537,-0.09097537,0.34830195,247.01441,195.91642)" />
      <path
         sodipodi:type="arc"
         style="fill:#ffffff;fill-opacity:1;stroke:none"
         id="path3006"
         sodipodi:cx="346.25995"
         sodipodi:cy="410.25522"
         sodipodi:rx="16.024101"
         sodipodi:ry="16.024101"
         d="m 362.28405,410.25522 c 0,8.84987 -7.17423,16.0241 -16.0241,16.0241 -8.84987,0 -16.0241,-7.17423 -16.0241,-16.0241 0,-8.84987 7.17423,-16.0241 16.0241,-16.0241 8.84987,0 16.0241,7.17423 16.0241,16.0241 z"
         transform="matrix(0.02164221,0.35933601,-0.35933601,0.02164221,404.34211,213.36909)" />
      <path
         transform="matrix(0.02164221,0.35933601,-0.35933601,0.02164221,410.93854,222.77084)"
         d="m 362.28405,410.25522 c 0,8.84987 -7.17423,16.0241 -16.0241,16.0241 -8.84987,0 -16.0241,-7.17423 -16.0241,-16.0241 0,-8.84987 7.17423,-16.0241 16.0241,-16.0241 8.84987,0 16.0241,7.17423 16.0241,16.0241 z"
         sodipodi:ry="16.024101"
         sodipodi:rx="16.024101"
         sodipodi:cy="410.25522"
         sodipodi:cx="346.25995"
         id="path3008"
         style="fill:#ffffff;fill-opacity:1;stroke:none"
         sodipodi:type="arc" />
      <path
         transform="matrix(0.34830195,0.09097537,-0.09097537,0.34830195,237.18491,170.28219)"
         d="m 517.64817,342.67529 c 0,23.08661 -18.7154,41.80201 -41.80201,41.80201 -23.08661,0 -41.802,-18.7154 -41.802,-41.80201 0,-23.08661 18.71539,-41.802 41.802,-41.802 23.08661,0 41.80201,18.71539 41.80201,41.802 z"
         sodipodi:ry="41.802006"
         sodipodi:rx="41.802006"
         sodipodi:cy="342.67529"
         sodipodi:cx="475.84616"
         id="path3010"
         style="fill:#ffffff;fill-opacity:1;stroke:none"
         sodipodi:type="arc" />
      <path
         transform="matrix(0.34830195,0.09097537,-0.09097537,0.34830195,233.64912,306.25577)"
         d="m 115.65221,-119.23685 c 0,45.018892 -36.495016,81.513911 -81.513904,81.513911 -45.018889,0 -81.513909,-36.495019 -81.513909,-81.513911 0,-45.01889 36.49502,-81.51391 81.513909,-81.51391 45.018888,0 81.513904,36.49502 81.513904,81.51391 z"
         sodipodi:ry="81.513908"
         sodipodi:rx="81.513908"
         sodipodi:cy="-119.23685"
         sodipodi:cx="34.138306"
         id="path3012"
         style="fill:#ffffff;fill-opacity:1;stroke:none"
         sodipodi:type="arc" />
      <path
         transform="matrix(0.35998717,0,0,0.35998717,229.77526,222.50243)"
         d="m 40.408605,206.81879 c 0,7.31076 -5.926542,13.2373 -13.237302,13.2373 -7.31076,0 -13.237302,-5.92654 -13.237302,-13.2373 0,-7.31076 5.926542,-13.23731 13.237302,-13.23731 7.31076,0 13.237302,5.92655 13.237302,13.23731 z"
         sodipodi:ry="13.237302"
         sodipodi:rx="13.237302"
         sodipodi:cy="206.81879"
         sodipodi:cx="27.171303"
         id="path3014"
         style="fill:#ffffff;fill-opacity:1;stroke:none"
         sodipodi:type="arc" />
      <path
         sodipodi:type="arc"
         style="fill:#ffffff;fill-opacity:1;stroke:none"
         id="path3016"
         sodipodi:cx="27.171303"
         sodipodi:cy="206.81879"
         sodipodi:rx="13.237302"
         sodipodi:ry="13.237302"
         d="m 40.408605,206.81879 c 0,7.31076 -5.926542,13.2373 -13.237302,13.2373 -7.31076,0 -13.237302,-5.92654 -13.237302,-13.2373 0,-7.31076 5.926542,-13.23731 13.237302,-13.23731 7.31076,0 13.237302,5.92655 13.237302,13.23731 z"
         transform="matrix(0.35998717,0,0,0.35998717,238.61207,225.93283)" />
      <path
         sodipodi:nodetypes="zzczzczzcz"
         inkscape:connector-curvature="0"
         id="path3020"
         d="m 243.10742,291.77269 c 0.47275,2.05984 1.99474,3.40855 2.83752,1.24142 0.84277,-2.16715 0.59114,-7.21203 0.88672,-10.81802 3.13309,-1.89168 7.72803,-3.95465 9.39926,-5.67503 1.67123,-1.72039 -1.4482,-1.21381 -3.36954,-0.53203 -1.92135,0.68176 -5.08389,2.95573 -7.62582,4.4336 -1.5961,-1.89167 -3.45127,-4.65633 -4.78831,-5.67502 -1.33704,-1.01869 -3.41206,-1.85763 -2.66017,0 0.7519,1.85764 3.78335,4.96564 5.67503,7.44848 -0.11822,3.19219 -0.82743,7.51676 -0.35469,9.5766 z"
         style="color:#000000;fill:#2222aa;fill-opacity:1;stroke:none;stroke-width:2.20000005;marker:none;visibility:visible;display:inline;overflow:visible;enable-background:accumulate" />
      <path
         transform="matrix(0.35998717,0,0,0.35998717,187.06654,211.86176)"
         d="m 191.14485,117.05011 c 0,13.87599 -11.24871,25.12471 -25.12471,25.12471 -13.87599,0 -25.12471,-11.24872 -25.12471,-25.12471 0,-13.87599 11.24872,-25.12471 25.12471,-25.12471 13.876,0 25.12471,11.24872 25.12471,25.12471 z"
         sodipodi:ry="25.12471"
         sodipodi:rx="25.12471"
         sodipodi:cy="117.05011"
         sodipodi:cx="166.02014"
         id="path3024"
         style="fill:#2222aa;fill-opacity:1;stroke:none"
         sodipodi:type="arc" />
      <path
         sodipodi:type="arc"
         style="fill:#2222aa;fill-opacity:1;stroke:none"
         id="path3026"
         sodipodi:cx="166.02014"
         sodipodi:cy="117.05011"
         sodipodi:rx="25.12471"
         sodipodi:ry="25.12471"
         d="m 191.14485,117.05011 c 0,13.87599 -11.24871,25.12471 -25.12471,25.12471 -13.87599,0 -25.12471,-11.24872 -25.12471,-25.12471 0,-13.87599 11.24872,-25.12471 25.12471,-25.12471 13.876,0 25.12471,11.24872 25.12471,25.12471 z"
         transform="matrix(0.35998717,0,0,0.35998717,206.57445,218.60085)" />
      <path
         transform="matrix(0.35998717,0,0,0.35998717,210.81125,220.94138)"
         d="m 161.58637,119.02068 c 0,7.89027 -6.39632,14.2866 -14.2866,14.2866 -7.89027,0 -14.28659,-6.39633 -14.28659,-14.2866 0,-7.89027 6.39632,-14.2866 14.28659,-14.2866 7.89028,0 14.2866,6.39633 14.2866,14.2866 z"
         sodipodi:ry="14.286599"
         sodipodi:rx="14.286599"
         sodipodi:cy="119.02068"
         sodipodi:cx="147.29977"
         id="path3030"
         style="fill:#ffffff;fill-opacity:1;stroke:none"
         sodipodi:type="arc" />
      <path
         sodipodi:type="arc"
         style="fill:#ffffff;fill-opacity:1;stroke:none"
         id="path3032"
         sodipodi:cx="147.29977"
         sodipodi:cy="119.02068"
         sodipodi:rx="14.286599"
         sodipodi:ry="14.286599"
         d="m 161.58637,119.02068 c 0,7.89027 -6.39632,14.2866 -14.2866,14.2866 -7.89027,0 -14.28659,-6.39633 -14.28659,-14.2866 0,-7.89027 6.39632,-14.2866 14.28659,-14.2866 7.89028,0 14.2866,6.39633 14.2866,14.2866 z"
         transform="matrix(0.35998717,0,0,0.35998717,190.89775,213.79669)" />
      <path
         transform="matrix(0.35998717,0,0,0.35998717,211.30711,240.9758)"
         d="m 175.56842,-46.780045 c 0,22.701833 -18.40347,41.1053052 -41.1053,41.1053052 -22.70183,0 -41.105305,-18.4034722 -41.105305,-41.1053052 0,-22.701832 18.403475,-41.105304 41.105305,-41.105304 22.70183,0 41.1053,18.403472 41.1053,41.105304 z"
         sodipodi:ry="41.105305"
         sodipodi:rx="41.105305"
         sodipodi:cy="-46.780045"
         sodipodi:cx="134.46312"
         id="path3034"
         style="fill:#ffffff;fill-opacity:1;stroke:none"
         sodipodi:type="arc" />
      <path
         sodipodi:type="arc"
         style="fill:#ffffff;fill-opacity:1;stroke:none"
         id="path3036"
         sodipodi:cx="134.46312"
         sodipodi:cy="-46.780045"
         sodipodi:rx="41.105305"
         sodipodi:ry="41.105305"
         d="m 175.56842,-46.780045 c 0,22.701833 -18.40347,41.1053052 -41.1053,41.1053052 -22.70183,0 -41.105305,-18.4034722 -41.105305,-41.1053052 0,-22.701832 18.403475,-41.105304 41.105305,-41.105304 22.70183,0 41.1053,18.403472 41.1053,41.105304 z"
         transform="matrix(0.35998717,0,0,0.35998717,238.39385,253.01435)" />
      <path
         transform="matrix(0.35998717,0,0,0.35998717,205.28784,259.03362)"
         d="m 241.05822,-53.747047 c 0,13.467188 -10.91731,24.384502 -24.3845,24.384502 -13.46719,0 -24.3845,-10.917314 -24.3845,-24.384502 0,-13.467189 10.91731,-24.384503 24.3845,-24.384503 13.46719,0 24.3845,10.917314 24.3845,24.384503 z"
         sodipodi:ry="24.384502"
         sodipodi:rx="24.384502"
         sodipodi:cy="-53.747047"
         sodipodi:cx="216.67372"
         id="path3038"
         style="fill:#2222aa;fill-opacity:1;stroke:none"
         sodipodi:type="arc" />
      <path
         sodipodi:type="arc"
         style="fill:#2222aa;fill-opacity:1;stroke:none"
         id="path3040"
         sodipodi:cx="216.67372"
         sodipodi:cy="-53.747047"
         sodipodi:rx="24.384502"
         sodipodi:ry="24.384502"
         d="m 241.05822,-53.747047 c 0,13.467188 -10.91731,24.384502 -24.3845,24.384502 -13.46719,0 -24.3845,-10.917314 -24.3845,-24.384502 0,-13.467189 10.91731,-24.384503 24.3845,-24.384503 13.46719,0 24.3845,10.917314 24.3845,24.384503 z"
         transform="matrix(0.35998717,0,0,0.35998717,181.71235,248.49989)" />
      <path
         sodipodi:nodetypes="czzczzczzczzczczzczzczczzczzczzczzczcczczzczzczzczzczczzzzzzczczzczzczzczzczccsc"
         inkscape:connector-curvature="0"
         id="path3043"
         d="m 368.58398,332.98403 c 0,0 -1.01339,-6.58826 0.67845,-7.7995 1.69184,-1.21125 2.81026,-0.91847 3.78522,0.96227 0.97493,1.88075 -2.14267,7.22055 -2.14267,7.22055 0,0 4.17986,-5.13919 6.47369,-4.5159 2.29383,0.6233 3.08312,2.45874 1.95452,4.56826 -1.12861,2.10951 -8.09882,1.96809 -8.09882,1.96809 0,0 5.7405,2.71344 5.93444,5.00959 0.19394,2.29614 -1.18138,3.969 -3.46554,3.63075 -2.28417,-0.33826 -3.61007,-7.13247 -3.61007,-7.13247 0,0 0.52902,7.28778 -1.71908,8.38671 -2.24809,1.09892 -4.60165,-0.62997 -5.02577,-2.84804 -0.4241,-2.21807 4.87165,-6.05679 4.87165,-6.05679 0,0 -18.65993,-8.08619 -24.29219,-7.3625 -5.63226,0.72368 -9.66527,5.67503 -9.66527,5.67503 0.40716,6.51474 2.65929,11.68891 -1.41877,17.5571 -4.07805,5.8682 -11.21572,9.42321 -19.86259,10.81802 -8.64686,1.39482 -27.13371,-1.24141 -27.13371,-1.24141 0,0 14.93575,-1.3374 21.104,-3.72423 6.16824,-2.38683 9.70883,-5.54488 12.41934,-10.00476 2.7105,-4.45987 1.2999,-9.18648 0.39772,-11.95554 0,0 -6.9502,-3.84952 -12.53583,-2.81231 -5.58563,1.03722 -13.75942,10.23035 -13.75942,10.23035 0,0 7.49989,1.70367 7.9805,4.25628 0.48063,2.55259 -1.5833,5.1824 -4.25626,4.96563 -2.67296,-0.21676 -4.71485,-6.65302 -4.71485,-6.65302 0,0 2.87814,7.13347 0.63593,8.9585 -2.24223,1.82504 -5.41972,0.57028 -6.56176,-1.95078 -1.14202,-2.52107 2.82491,-8.36562 2.82491,-8.36562 0,0 -6.58181,3.18703 -9.03197,1.62652 -2.45014,-1.56049 -3.80466,-4.5578 -1.5961,-6.73909 2.20856,-2.18128 9.84524,1.8343 9.84524,1.8343 0,0 -7.29135,-5.77352 -6.65304,-9.28277 0.63832,-3.50925 4.03164,-5.64311 7.09378,-4.25627 3.06215,1.38684 2.12814,11.70474 2.12814,11.70474 0,0 8.34365,-10.36566 14.3397,-11.45916 5.99606,-1.0935 11.55262,-0.24558 11.55262,-0.24558 -1.03923,1.28785 -10.64998,-12.90985 -13.74421,-22.96612 0,0 -11.14539,-8.37539 -18.70985,-11.70474 -7.56448,-3.32935 -13.54796,-9.36253 -13.54796,-9.36253 0,0 1.38184,7.87771 -0.70938,9.22191 -2.09122,1.34422 -4.52953,0.36301 -5.32033,-1.95079 -0.79081,-2.31379 3.78509,-7.56311 3.78509,-7.56311 0,0 -6.86776,3.43408 -8.92808,1.5334 -2.06034,-1.90068 -1.76995,-5.19509 0.53202,-6.7391 2.30199,-1.54401 8.42741,2.1057 8.42741,2.1057 0,0 -4.97669,-4.86914 -3.81644,-7.42604 1.16023,-2.5569 5.14471,-3.08871 7.09378,-1.41876 1.94907,1.66996 -0.10389,7.6876 -0.10389,7.6876 0,0 2.93001,-5.82429 5.42422,-5.7368 2.49422,0.0875 4.82431,2.55564 4.07892,5.14299 -0.74537,2.58736 -9.04456,3.19221 -9.04456,3.19221 0,0 7.87225,6.42541 13.72529,8.65315 5.85305,2.22773 16.84774,7.71449 16.84774,7.71449 0,0 -0.0474,-2.62775 -0.53204,-4.43362 -0.48458,-1.80586 -3.07301,-2.4792 -2.66017,-6.20706 0.41285,-3.72784 5.03912,-10.89053 9.22193,-12.59146 4.18279,-1.70093 7.04707,-1.02973 10.10863,2.12813 3.06156,3.15785 4.43529,14.03091 3.01487,16.22703 -1.42044,2.19612 -3.71777,1.69823 -4.87699,3.36954 -1.1592,1.67132 -1.33007,3.45822 -1.33007,3.45822 0,0 9.29868,-1.23711 11.95554,-3.01485 2.65686,-1.77774 4.00547,-5.67502 4.00547,-5.67502 0,0 -6.77504,1.4867 -8.15786,-0.53204 -1.38281,-2.01874 -0.3538,-5.50482 1.95079,-6.20706 2.3046,-0.70223 6.45787,4.58944 6.45787,4.58944 0,0 -3.64602,-6.18602 -2.02425,-7.95899 1.62178,-1.77297 4.63603,-1.28804 5.85237,0.70939 1.21634,1.99742 -1.2073,7.37501 -1.2073,7.37501 0,0 3.4164,-4.97465 5.81826,-4.36016 2.40186,0.6145 4.16644,3.09637 3.01485,5.32034 -1.15157,2.22397 -8.24022,1.20022 -8.24022,1.20022 0,0 7.52258,2.2617 8.06288,5.00684 0.5403,2.74514 -1.06319,5.51765 -3.90158,5.32033 -2.83838,-0.19731 -4.96565,-9.22191 -4.96565,-9.22191 0,0 -2.32646,5.25515 -4.73176,7.14524 -2.4053,1.8901 -7.50579,4.05494 -10.53411,4.97151 4.82141,8.8874 8.35449,12.24776 11.80765,22.37677 6.59288,-3.38007 8.43982,-5.16738 14.82517,-4.09035 5.45652,0.92037 13.83585,5.04703 22.59981,9.7441 z"
         style="color:#000000;fill:#2222aa;fill-opacity:1;stroke:none;stroke-width:2.20000005;marker:none;visibility:visible;display:inline;overflow:visible;enable-background:accumulate" />
    </g>
  </g>
</svg>
